<?xml version="1.0" standalone="no"?>
<!DOCTYPE svg PUBLIC "-//W3C//DTD SVG 20010904//EN"
 "http://www.w3.org/TR/2001/REC-SVG-20010904/DTD/svg10.dtd">
<svg version="1.0" xmlns="http://www.w3.org/2000/svg"
 width="537.000000pt" height="537.000000pt" viewBox="0 0 537.000000 537.000000"
 preserveAspectRatio="xMidYMid meet">
<metadata>
Created by potrace 1.14, written by Peter Selinger 2001-2017
</metadata>
<g transform="translate(0.000000,537.000000) scale(0.100000,-0.100000)"
fill="#000000" stroke="none">
<path d="M2885 4410 c-48 -11 -79 -30 -66 -43 7 -7 22 -7 49 1 65 20 123 15
182 -15 68 -35 120 -96 102 -121 -27 -38 -43 -87 -34 -102 13 -21 56 -24 71
-6 7 9 15 39 17 68 4 59 18 75 94 109 85 38 179 31 285 -21 98 -49 163 -120
181 -201 22 -98 33 -219 33 -378 0 -101 2 -186 5 -188 12 -12 36 8 36 30 0 46
104 275 208 457 58 102 134 208 187 263 38 39 55 63 51 74 -6 14 -10 13 -33
-8 -111 -101 -208 -248 -353 -536 -34 -68 -62 -123 -63 -123 -1 0 -3 50 -4
110 -3 223 -36 365 -105 441 -40 45 -144 106 -212 124 -108 29 -226 8 -305
-54 l-24 -18 -31 41 c-57 74 -178 117 -271 96z m276 -263 c-13 -13 -15 1 -4
30 7 17 8 17 11 -1 2 -10 -1 -23 -7 -29z"/>
<path d="M4031 4326 c-59 -44 -129 -160 -116 -193 8 -22 23 -7 50 51 25 53 74
111 110 132 11 6 15 15 11 22 -10 17 -18 15 -55 -12z"/>
<path d="M4180 3743 c-75 -38 -120 -73 -120 -95 0 -24 6 -23 50 12 21 16 60
40 86 53 74 34 79 38 63 48 -19 12 -18 12 -79 -18z"/>
<path d="M2668 3685 c-2 -1 -41 -5 -88 -8 -245 -17 -507 -108 -697 -243 -128
-91 -256 -235 -327 -368 -24 -45 -73 -166 -81 -202 -3 -10 -12 -48 -21 -84
-17 -72 -28 -364 -13 -391 5 -10 3 -21 -4 -29 -9 -10 -9 -11 1 -6 7 4 12 2 12
-6 0 -8 -6 -20 -12 -27 -10 -11 -10 -13 0 -7 6 4 13 4 13 -1 1 -4 3 -19 6 -33
2 -14 5 -33 6 -42 1 -10 4 -18 7 -18 3 0 6 -13 6 -29 1 -16 9 -43 17 -60 11
-22 12 -31 4 -31 -8 0 -8 -3 1 -8 7 -5 14 -22 15 -39 1 -17 5 -29 10 -26 4 2
7 -5 7 -16 0 -12 5 -21 11 -21 5 0 7 -5 4 -10 -4 -6 -1 -18 6 -26 6 -8 9 -17
6 -20 -3 -4 1 -13 9 -21 8 -9 13 -22 10 -29 -3 -8 -2 -13 2 -11 4 1 7 -2 7 -8
0 -5 -4 -9 -8 -7 -5 1 -6 -2 -2 -7 3 -6 11 -8 18 -5 17 6 44 -56 27 -66 -8 -5
-7 -9 5 -13 9 -4 13 -3 10 3 -3 6 -1 10 4 10 6 0 11 -5 11 -11 0 -6 13 -28 30
-48 21 -28 26 -41 18 -49 -8 -8 -5 -9 11 -5 16 4 21 1 21 -16 0 -11 5 -21 10
-21 6 0 10 -5 10 -11 0 -6 -9 -8 -22 -4 -20 5 -21 4 -5 -5 9 -6 22 -8 28 -4 7
4 29 -13 53 -38 22 -25 53 -53 68 -62 16 -11 25 -23 21 -32 -3 -8 -8 -13 -11
-10 -2 3 -13 1 -23 -5 -18 -9 -16 -39 3 -39 6 0 4 7 -3 16 -12 15 -11 16 7 10
15 -4 24 -2 28 9 3 8 10 15 16 15 7 0 8 -6 0 -19 -5 -11 -10 -22 -10 -25 0
-10 60 -37 70 -31 5 3 12 -5 16 -17 11 -33 12 -58 2 -64 -4 -3 -9 1 -9 8 -1 7
-2 18 -4 23 -1 6 -3 16 -3 23 -1 7 -6 11 -11 7 -5 -3 -12 -1 -16 5 -3 5 -12
10 -18 10 -7 0 -4 -5 6 -11 14 -8 16 -14 6 -25 -8 -10 -8 -14 0 -14 6 0 11 5
11 10 0 6 5 10 11 10 6 0 9 -6 6 -14 -3 -8 0 -22 8 -32 7 -10 11 -25 8 -34 -4
-13 -3 -13 5 0 6 8 8 18 6 22 -3 5 2 11 10 14 9 3 16 10 16 16 0 5 -4 6 -10 3
-11 -7 -14 8 -3 18 3 4 15 -7 25 -23 21 -35 24 -50 6 -32 -7 7 -17 12 -23 12
-5 0 -2 -5 8 -11 9 -6 15 -15 11 -21 -4 -6 -10 -5 -15 3 -6 10 -9 10 -9 2 0
-21 18 -24 36 -6 20 21 36 23 46 8 14 -19 8 -26 -12 -15 -14 7 -20 7 -20 0 0
-5 7 -10 15 -10 8 0 15 -4 15 -10 0 -12 -6 -13 -29 -1 -11 6 -22 6 -32 -1 -12
-8 -11 -9 2 -5 9 3 26 -1 37 -9 19 -13 21 -12 27 6 4 11 11 17 17 14 7 -5 8
-2 3 6 -6 10 -4 12 9 7 36 -14 68 26 41 50 -4 4 -5 3 -2 -3 4 -7 0 -14 -8 -17
-10 -4 -12 -1 -8 10 5 12 1 14 -18 8 -13 -4 -21 -4 -17 0 4 5 3 14 -3 21 -7 8
-6 14 2 20 8 4 9 3 5 -4 -6 -11 6 -16 27 -13 4 0 7 -3 7 -9 0 -6 3 -9 8 -9 23
4 32 -4 32 -25 0 -14 -5 -28 -10 -31 -6 -4 -8 -15 -5 -26 4 -11 3 -19 -2 -18
-19 3 -33 -2 -33 -12 0 -8 5 -8 15 1 10 8 15 9 15 2 0 -6 -9 -16 -20 -22 -21
-11 -27 -30 -9 -30 5 0 7 5 4 10 -3 6 1 10 9 10 8 0 18 9 21 20 4 11 11 18 16
14 6 -4 6 -11 -1 -19 -9 -10 -9 -19 0 -32 11 -17 11 -17 6 1 -4 10 -2 24 4 31
8 9 8 15 0 20 -12 7 -13 25 -2 25 5 0 14 -11 20 -25 7 -15 8 -25 2 -25 -6 0
-10 -5 -10 -11 0 -8 4 -8 14 0 19 16 54 22 61 10 4 -5 1 -9 -5 -9 -6 0 -10 -8
-8 -17 1 -10 -1 -24 -5 -31 -6 -8 -1 -15 13 -20 12 -4 21 -11 21 -15 -1 -9 9
-9 10 1 1 4 -8 12 -20 18 -11 6 -18 14 -14 17 3 4 17 0 30 -8 14 -9 23 -11 23
-5 0 6 5 8 10 5 6 -4 9 -1 8 6 -2 6 2 13 9 16 18 7 9 -28 -12 -43 -10 -8 -16
-17 -12 -20 7 -7 25 9 50 45 9 14 29 27 44 29 27 3 27 3 8 -12 -11 -8 -23 -12
-27 -10 -4 3 -5 -3 -1 -12 4 -10 2 -15 -4 -11 -5 3 -17 -3 -26 -14 -9 -10 -13
-19 -7 -19 5 0 13 8 19 18 5 9 12 16 15 15 14 -7 26 -2 24 8 -2 6 2 13 7 15 6
2 11 -5 12 -16 1 -12 -4 -20 -13 -20 -8 0 -17 -7 -20 -15 -4 -8 -10 -12 -15
-9 -5 3 -9 0 -9 -5 0 -16 20 -13 26 4 4 8 10 15 16 15 5 0 6 -6 3 -12 -4 -7 1
-4 9 7 9 11 14 25 12 32 -3 7 -1 13 4 13 9 0 14 -14 11 -33 0 -4 4 -6 10 -5 6
2 18 -8 27 -21 16 -23 16 -23 -6 -17 -12 4 -22 4 -23 -1 0 -4 -3 -19 -5 -32
-2 -14 -2 -22 2 -19 3 3 7 14 9 25 1 10 8 17 14 15 7 -1 22 5 34 14 18 13 18
15 3 10 -13 -5 -17 -2 -13 9 4 8 2 17 -3 20 -6 4 -10 11 -10 18 0 6 12 -1 26
-16 14 -16 29 -25 32 -22 4 4 -1 11 -11 16 -9 6 -17 15 -17 21 0 7 4 7 13 -1
10 -8 17 -7 27 2 10 10 12 8 6 -8 -4 -11 -4 -16 0 -13 3 4 14 -1 23 -11 17
-19 76 -47 67 -32 -3 4 -19 14 -36 21 -16 7 -30 16 -30 21 0 12 6 11 41 -6 16
-9 34 -13 40 -10 5 4 16 2 24 -5 10 -9 15 -7 20 10 3 11 11 17 17 14 6 -4 6
-10 -1 -17 -6 -6 -11 -19 -11 -30 0 -10 -4 -16 -9 -12 -6 3 -14 -3 -20 -13 -7
-14 -6 -19 4 -19 7 0 11 7 7 15 -3 10 -1 13 6 8 7 -4 14 0 18 11 3 10 9 25 14
34 5 10 4 21 -3 28 -8 8 -8 11 1 11 7 0 15 -7 18 -15 4 -9 11 -14 18 -13 6 1
22 -4 35 -11 13 -7 21 -9 18 -4 -3 5 3 14 14 21 21 13 26 3 7 -16 -9 -9 -9
-15 1 -24 10 -11 15 -9 27 7 8 11 16 19 17 17 4 -6 37 10 37 18 0 4 -7 10 -14
13 -11 4 -13 1 -9 -10 4 -11 2 -14 -5 -9 -6 4 -17 -2 -24 -14 -13 -20 -28 -27
-28 -12 0 5 10 19 22 32 19 20 19 23 4 17 -14 -6 -17 -3 -12 8 3 9 2 13 -4 10
-6 -3 -10 -3 -10 1 0 11 33 33 50 33 12 0 11 -2 -2 -10 -23 -13 -23 -28 0 -28
9 1 27 -2 39 -6 16 -5 25 -3 29 9 3 9 10 14 14 11 14 -9 23 16 11 28 -9 9 -11
8 -6 -5 5 -13 1 -16 -22 -13 -15 2 -34 -2 -42 -9 -12 -9 -14 -8 -8 6 4 11 0
21 -11 27 -15 9 -15 10 -1 11 9 0 19 -3 23 -7 14 -15 46 -13 46 3 0 8 4 13 9
9 5 -3 12 -1 16 5 3 5 11 10 17 10 7 0 7 -4 0 -13 -6 -7 -7 -19 -3 -26 5 -7 7
-25 5 -40 -2 -16 4 -37 12 -47 14 -18 15 -18 5 3 -14 27 -14 36 -2 28 12 -7
30 25 24 43 -3 6 0 12 6 12 6 0 11 -5 11 -11 0 -6 8 -4 20 4 11 8 35 13 53 11
22 -3 27 -1 18 5 -8 5 -21 7 -30 4 -13 -4 -13 -2 2 10 9 8 17 19 17 24 0 5 14
10 30 10 17 0 30 -4 30 -8 0 -10 -30 -20 -41 -13 -5 3 -9 0 -9 -5 0 -21 40
-11 56 14 15 23 43 38 29 16 -11 -18 15 -22 45 -6 28 14 30 14 30 -1 0 -10 3
-15 6 -11 4 3 4 13 0 22 -5 14 -8 14 -35 0 -35 -18 -45 -19 -35 -4 3 6 20 17
38 25 17 7 23 13 14 14 -11 0 -16 7 -15 20 1 11 6 18 12 16 5 -2 9 -9 7 -15
-1 -6 2 -11 8 -11 13 0 13 13 -1 27 -9 9 -7 12 10 10 15 -1 20 -6 16 -16 -4
-11 0 -10 15 4 17 16 20 16 20 2 0 -9 4 -19 10 -22 7 -4 7 2 0 19 -8 21 -6 28
11 40 13 9 16 16 10 21 -6 3 -11 12 -11 18 1 7 9 2 19 -10 13 -16 21 -19 29
-11 8 8 15 8 27 -2 8 -7 15 -9 15 -5 0 4 -8 13 -17 20 -9 7 -18 21 -19 31 -3
19 -2 19 11 0 13 -18 14 -17 10 12 -2 17 -6 36 -9 41 -4 5 7 19 23 30 39 28
53 26 19 -2 -29 -24 -25 -53 6 -41 12 5 14 10 5 20 -8 10 -6 13 10 11 13 -1
20 -6 17 -14 -3 -7 -1 -13 3 -13 5 0 11 7 15 15 5 13 -5 19 -26 16 -4 0 -6 8
-5 19 2 24 15 26 23 5 4 -8 16 -15 28 -14 l21 0 -21 9 c-21 8 -42 30 -29 30 4
0 15 -5 26 -10 18 -10 24 -4 20 23 -2 12 17 8 22 -5 3 -7 4 2 2 20 -1 21 2 35
11 39 7 2 10 11 7 19 -4 10 0 12 11 8 9 -3 16 -1 16 6 0 6 -4 8 -10 5 -5 -3
-10 -2 -10 3 0 18 13 20 36 5 13 -8 24 -11 24 -7 0 5 5 2 11 -6 7 -10 9 -11 7
-2 -2 8 -8 14 -13 14 -6 0 -19 5 -30 11 -11 6 -24 11 -29 12 -15 0 -18 22 -5
31 8 4 9 3 5 -4 -4 -7 -2 -12 3 -12 6 0 11 7 11 15 0 17 16 20 25 5 3 -5 11
-10 18 -10 6 0 2 7 -11 15 -16 12 -27 13 -41 6 -19 -10 -31 -6 -31 12 0 6 3 7
6 4 4 -3 14 -2 23 3 24 12 82 -25 75 -48 -5 -15 -4 -15 5 -2 11 15 -5 35 -55
67 -17 11 -16 12 9 7 16 -4 27 -2 27 5 0 6 -7 8 -15 5 -11 -5 -13 -2 -9 10 3
9 10 14 14 11 5 -3 11 -1 15 4 3 6 12 8 19 5 8 -3 17 0 21 6 4 6 1 11 -6 9
-27 -3 -35 1 -36 20 -1 14 3 18 15 14 14 -4 15 -3 2 5 -12 9 -10 15 13 36 16
14 24 26 18 26 -5 0 -13 -4 -16 -10 -3 -5 -12 -10 -18 -10 -7 1 -1 10 12 20
13 11 20 20 17 20 -4 0 -2 9 4 20 9 16 8 18 -5 14 -8 -3 -13 -9 -10 -13 2 -4
-3 -18 -12 -30 -11 -16 -18 -20 -26 -12 -8 8 -7 15 2 24 11 10 12 9 6 -2 -6
-10 -4 -12 4 -7 6 4 9 16 6 27 -4 13 -2 19 8 19 8 0 18 8 22 18 6 15 9 13 21
-11 12 -23 34 -30 34 -11 0 3 -5 2 -12 -2 -8 -5 -9 -2 -5 10 4 10 3 15 -3 11
-10 -6 -14 7 -11 31 1 6 -7 18 -16 25 -16 13 -17 12 -5 -3 12 -15 11 -20 -6
-38 -14 -15 -19 -17 -19 -5 0 8 4 15 9 15 5 0 8 10 6 23 -2 14 2 21 11 19 9
-2 11 3 7 14 -3 9 -2 22 3 28 6 6 9 21 7 31 -2 11 4 25 13 32 14 11 14 13 1
13 -10 1 -9 4 5 10 18 8 18 9 2 9 -11 1 -15 6 -11 12 7 12 10 32 13 77 1 16 5
21 14 16 7 -5 7 -1 -2 10 -13 15 -13 19 0 27 8 5 9 9 3 9 -13 0 -12 50 1 70 5
9 4 11 -3 6 -7 -4 -12 -3 -12 3 0 5 6 12 13 14 9 4 9 6 -2 6 -9 1 -8 6 6 19
10 9 14 14 9 10 -22 -17 -26 -1 -29 115 -1 15 -4 27 -7 27 -4 0 -7 6 -7 13 0
24 -12 92 -22 125 -5 18 -10 33 -10 35 0 22 -68 212 -97 270 -19 38 -31 73
-28 79 4 7 2 8 -5 4 -6 -4 -14 0 -18 11 -8 23 -73 117 -85 121 -4 2 -8 8 -8
13 0 27 -220 228 -270 247 -8 3 -17 9 -20 12 -3 4 -32 21 -65 38 -108 54 -262
97 -383 108 -37 3 -82 7 -99 8 -18 2 -34 2 -35 1z m-58 -556 c0 -5 -15 -7 -32
-4 -24 4 -29 3 -18 -5 8 -5 10 -10 5 -10 -6 0 -17 6 -24 13 -10 10 -12 9 -9
-3 2 -8 -2 -14 -9 -13 -7 2 -10 -4 -7 -15 5 -15 5 -16 -5 0 -6 9 -17 15 -24
14 -16 -2 -61 -49 -65 -67 -1 -8 4 -6 13 5 8 11 15 16 15 10 -1 -16 -49 -69
-56 -61 -4 4 -2 7 4 7 7 0 12 4 12 8 0 5 -7 9 -15 9 -8 0 -11 -5 -8 -10 3 -6
1 -7 -5 -3 -6 4 -9 13 -6 20 3 7 -3 19 -13 26 -15 12 -16 12 -5 0 15 -17 16
-30 1 -30 -5 0 -8 4 -5 9 10 15 -18 31 -34 19 -12 -8 -11 -9 5 -3 11 3 16 3
12 -1 -4 -4 -1 -14 6 -22 10 -13 9 -14 -2 -7 -10 5 -12 4 -7 -3 5 -8 1 -10 -9
-5 -12 4 -13 8 -5 13 8 5 7 9 -4 13 -9 4 -15 3 -15 -1 3 -20 -2 -25 -12 -12
-9 13 -10 12 -5 -3 3 -10 2 -15 -3 -12 -5 3 -13 1 -16 -5 -4 -6 -1 -9 6 -8 6
2 13 -2 16 -8 2 -6 -4 -11 -14 -11 -43 0 -49 -2 -33 -14 13 -9 13 -10 -2 -6
-12 4 -15 0 -14 -18 2 -18 -1 -22 -15 -20 -11 2 -20 0 -20 -6 -1 -5 -2 -14 -3
-20 0 -6 -10 -17 -20 -25 -19 -13 -11 -20 17 -15 9 1 9 -13 0 -22 -3 -4 -11
-3 -17 3 -8 6 -12 3 -13 -11 -1 -10 2 -19 8 -19 5 0 1 -8 -8 -18 -12 -12 -21
-15 -26 -8 -5 7 -7 5 -4 -4 2 -8 10 -14 16 -12 14 3 14 -4 1 -29 -8 -13 -7
-19 0 -19 6 0 8 -4 5 -10 -3 -5 -11 -10 -16 -10 -6 0 -8 4 -4 9 3 5 1 12 -4
15 -5 4 -8 -1 -7 -9 3 -19 10 -26 31 -29 21 -3 35 -25 28 -45 -5 -13 -3 -14 7
-4 12 11 10 18 -8 43 -13 16 -18 30 -13 30 5 0 13 -4 16 -10 3 -5 12 -10 18
-10 7 0 4 5 -6 11 -12 7 -16 17 -12 30 4 11 2 19 -4 19 -6 0 -11 4 -11 9 0 6
9 9 20 8 16 -1 19 -7 15 -32 -5 -27 -4 -28 9 -12 8 11 17 14 20 8 4 -5 2 -12
-4 -16 -13 -8 -13 -25 1 -25 5 0 7 5 4 10 -3 6 1 13 9 16 9 3 16 11 16 17 0 6
-3 7 -7 4 -8 -8 -33 11 -33 25 0 6 8 4 18 -3 14 -11 15 -11 5 1 -17 19 -16 31
2 24 8 -4 15 -1 15 6 0 6 -4 8 -10 5 -5 -3 -10 -3 -10 0 0 7 29 39 31 33 5
-21 4 -50 -3 -54 -4 -3 -8 -11 -8 -17 0 -7 7 -4 15 6 7 11 11 25 8 33 -3 8 0
14 6 14 6 0 11 -4 11 -10 0 -5 5 -10 11 -10 8 0 9 4 0 13 -13 16 -5 27 20 27
10 0 26 11 35 25 19 30 39 34 24 5 -9 -16 -8 -22 5 -26 8 -3 13 -9 11 -13 -3
-4 4 -8 15 -8 10 -1 19 2 19 8 0 5 -3 8 -7 7 -5 0 -16 2 -25 6 -18 8 -14 36 5
32 7 -1 9 -1 4 1 -4 3 -5 9 -1 14 3 5 0 8 -7 7 -6 -2 -14 3 -16 10 -3 8 1 10
11 6 9 -3 16 -1 16 6 0 6 -4 8 -10 5 -5 -3 -10 -1 -10 4 0 6 2 11 4 11 2 0 11
3 19 6 11 4 14 -2 11 -28 -3 -22 -1 -28 5 -19 5 8 7 20 5 26 -9 23 35 25 51 2
8 -12 15 -16 15 -10 0 6 -7 16 -15 23 -13 11 -13 15 -3 21 20 13 28 11 22 -6
-4 -8 -1 -15 6 -15 6 0 8 5 5 10 -3 6 2 10 11 10 10 0 14 -3 11 -7 -9 -9 31
-36 43 -28 11 7 2 35 -12 35 -6 0 -5 -6 2 -15 8 -10 9 -15 2 -15 -10 0 -32 30
-32 44 0 2 11 3 25 0 14 -2 25 0 25 5 0 6 -9 8 -21 6 -12 -2 -19 0 -17 7 2 6
16 12 30 14 22 2 26 -1 23 -17 -2 -10 -6 -23 -9 -27 -2 -4 -1 -14 5 -22 6 -11
9 -11 9 -2 0 10 4 10 19 0 16 -10 23 -9 39 5 10 9 22 14 25 10 11 -11 8 -23
-5 -20 -15 3 -19 -41 -5 -50 6 -3 7 -1 3 5 -4 7 -1 12 6 13 10 0 10 2 1 6 -7
2 -13 9 -13 14 0 6 4 8 9 4 16 -9 24 15 11 30 -8 10 -9 15 -2 15 6 0 16 -8 21
-17 6 -11 11 -13 11 -5 0 14 31 12 43 -3 4 -6 11 -4 17 5 9 13 11 13 21 0 9
-13 10 -12 5 3 -4 12 -2 17 6 14 7 -2 12 -11 10 -19 -2 -16 44 -68 60 -68 5 0
6 -4 3 -10 -3 -5 -1 -10 4 -10 19 0 12 12 -26 46 -20 18 -34 36 -31 40 4 3 19
-6 34 -21 15 -15 24 -20 21 -11 -9 24 11 19 39 -9 13 -13 30 -22 38 -19 9 3
12 -4 11 -25 -2 -29 -1 -29 21 -13 12 9 20 21 17 26 -3 4 -9 2 -14 -5 -4 -7
-11 -10 -15 -6 -4 3 -2 12 4 20 7 8 7 18 2 27 -7 11 -10 12 -10 2 0 -7 -5 -10
-11 -6 -8 4 -7 9 2 15 11 7 11 9 2 10 -7 1 -17 2 -23 3 -5 0 -15 7 -22 15 -11
12 -10 13 3 8 9 -3 16 0 16 9 0 7 -3 11 -7 9 -3 -2 -14 5 -24 16 -17 20 -18
20 -37 3 -10 -9 -19 -12 -19 -7 0 17 28 35 41 27 8 -5 9 -3 5 5 -5 7 -14 10
-22 7 -8 -3 -13 0 -11 6 1 7 -3 12 -10 13 -19 0 -28 15 -9 15 23 0 106 -81
106 -103 0 -10 4 -16 8 -13 8 5 59 -75 53 -83 -1 -2 1 -7 6 -10 5 -3 17 -23
27 -44 17 -37 15 -57 -6 -57 -7 0 -6 6 2 15 9 10 9 15 1 15 -6 0 -11 -5 -11
-11 0 -5 -4 -7 -10 -4 -5 3 -10 1 -10 -4 0 -11 6 -13 42 -15 10 -1 18 -5 19
-11 1 -5 10 -34 20 -64 15 -42 16 -51 4 -41 -8 7 -12 17 -8 23 3 6 1 7 -6 3
-9 -6 -9 -11 -1 -21 7 -8 9 -19 5 -24 -3 -6 0 -8 8 -5 16 6 35 -51 33 -99 -1
-15 2 -27 6 -27 5 0 7 -16 5 -35 -3 -19 0 -35 5 -35 5 0 4 -10 -3 -21 -6 -12
-7 -19 -1 -15 7 4 8 -23 5 -77 -3 -45 -5 -88 -6 -94 0 -7 -4 -13 -9 -13 -5 0
-7 -4 -4 -8 7 -12 -15 -82 -26 -82 -5 0 -7 -4 -4 -9 11 -18 -117 -181 -143
-181 -5 0 -14 -7 -21 -15 -6 -8 -15 -14 -18 -13 -4 1 -20 -5 -37 -13 -91 -47
-229 -65 -325 -43 -67 16 -160 60 -160 76 0 6 -3 9 -6 5 -4 -3 -27 13 -52 37
-42 40 -45 46 -31 63 13 17 13 17 -4 4 -15 -12 -19 -12 -32 5 -8 10 -15 24
-15 31 0 6 -3 13 -7 15 -16 7 -55 90 -49 104 3 9 1 12 -4 9 -6 -4 -14 4 -19
17 -7 17 -5 26 7 36 16 12 15 13 -2 10 -16 -2 -23 8 -38 56 -10 32 -15 62 -12
67 3 5 1 9 -4 9 -15 0 -20 69 -6 74 7 3 10 14 7 26 -4 16 -2 19 13 14 15 -5
16 -4 4 4 -19 14 -33 4 -27 -20 4 -12 1 -18 -6 -15 -18 6 -15 69 3 75 13 5 13
3 0 -14 -14 -18 -14 -18 2 -5 21 15 14 33 -10 29 -14 -3 -17 6 -18 50 -1 29
-4 55 -7 59 -4 3 -3 11 0 17 4 6 8 27 8 46 0 23 4 34 13 32 6 -1 12 2 12 8 0
5 -4 10 -10 10 -13 0 -13 37 0 45 6 4 8 10 5 15 -3 5 -1 11 5 15 6 4 8 11 5
16 -4 5 -1 9 4 9 6 0 10 4 9 8 -6 16 37 82 49 77 7 -2 13 0 13 5 0 6 -5 10
-12 10 -6 0 -1 9 12 20 13 11 20 20 15 20 -4 0 -2 7 5 15 7 8 16 12 21 10 4
-3 12 1 16 10 12 21 75 65 84 59 5 -3 9 0 9 6 0 7 6 10 14 7 8 -3 17 1 20 9 3
9 10 13 15 9 5 -3 12 -1 16 5 4 6 10 8 15 5 5 -3 11 -1 14 4 3 5 19 7 36 6 16
-1 30 1 30 4 0 4 20 8 45 8 25 1 45 -3 45 -8z m40 1 c0 -5 -3 -9 -7 -9 -17 3
-24 -2 -18 -11 5 -8 11 -8 20 0 9 8 15 8 20 0 3 -5 3 -11 -2 -11 -37 -6 -52
-5 -46 4 3 6 1 7 -6 3 -6 -4 -9 -12 -6 -17 4 -5 1 -9 -4 -9 -6 0 -10 -6 -8
-12 1 -8 -7 -12 -20 -10 -13 2 -23 -1 -23 -6 0 -5 7 -9 15 -10 8 -1 22 -3 30
-4 9 -1 14 -7 11 -15 -3 -8 -2 -12 3 -9 5 3 11 -1 14 -8 5 -11 -3 -14 -32 -11
-33 3 -40 0 -50 -21 -11 -25 -26 -31 -36 -14 -4 6 -3 10 2 9 20 -4 24 2 12 18
-12 15 -12 16 3 10 10 -3 20 -1 24 5 4 7 3 8 -4 4 -15 -9 -16 6 -2 20 7 7 5
17 -5 30 -12 16 -14 16 -9 2 3 -10 1 -18 -5 -18 -6 0 -10 4 -8 9 1 5 -1 8 -4
8 -3 -1 -13 4 -21 10 -13 11 -15 7 -13 -27 1 -26 -2 -39 -9 -37 -6 3 -10 10
-8 16 1 7 -2 10 -8 6 -6 -3 -8 -11 -5 -16 4 -5 0 -9 -7 -9 -8 0 -9 -3 -3 -8
22 -16 13 -39 -16 -39 -35 0 -33 10 13 58 20 21 33 41 28 44 -13 8 9 42 26 42
7 0 11 -4 9 -8 -3 -4 2 -9 10 -13 9 -3 19 3 25 14 6 11 17 17 24 14 8 -3 17
-1 20 5 4 6 13 8 21 5 8 -4 18 1 21 10 7 17 34 22 34 6z m30 0 c0 10 3 11 8 4
4 -6 15 -10 25 -8 9 1 17 -1 17 -5 0 -4 9 -7 20 -8 11 -1 33 -11 48 -21 15
-11 29 -20 32 -20 3 -1 13 -4 24 -8 17 -6 17 -8 2 -16 -13 -8 -15 -13 -5 -24
6 -7 15 -12 19 -9 5 3 7 -2 6 -11 -1 -8 -8 -19 -15 -23 -9 -6 -9 -10 2 -20 11
-9 17 -8 27 4 10 12 16 13 27 4 8 -7 12 -18 9 -25 -5 -12 27 -48 35 -39 3 2 5
-6 6 -18 2 -21 0 -20 -23 6 -13 15 -24 24 -24 20 -1 -4 -7 6 -15 22 -7 17 -14
25 -14 18 -1 -18 -34 -21 -53 -5 -11 9 -22 11 -35 4 -10 -5 -34 -8 -53 -7 -26
1 -36 7 -38 21 -2 12 0 15 5 7 6 -8 13 -3 22 18 7 16 17 26 23 23 5 -4 3 -13
-6 -23 -23 -25 -20 -29 19 -28 19 1 35 6 35 11 0 6 5 5 12 -2 24 -24 34 -6 15
26 -5 7 -3 12 3 12 7 0 5 6 -4 15 -8 8 -18 24 -21 35 -3 11 -11 20 -18 20 -8
0 -8 -3 1 -12 15 -15 15 -28 1 -28 -5 0 -7 5 -3 12 5 7 3 8 -6 3 -9 -6 -11 -4
-5 5 6 9 4 11 -5 5 -9 -6 -11 -4 -5 5 6 9 4 11 -6 5 -11 -7 -12 -6 -2 6 10 13
8 15 -12 15 -13 0 -21 -4 -18 -10 3 -5 1 -6 -5 -2 -7 4 -19 3 -28 -2 -11 -6
-13 -11 -5 -16 6 -4 11 -2 11 3 0 6 5 11 11 11 8 0 9 -4 0 -13 -6 -8 -7 -18
-3 -23 4 -4 -1 -2 -10 5 -15 11 -18 11 -18 0 0 -8 -6 -5 -15 7 -15 19 -15 19
-8 0 5 -15 3 -18 -9 -13 -13 4 -16 1 -12 -19 6 -30 -8 -31 -21 -1 -6 12 -16
21 -23 19 -9 -1 -8 5 3 22 10 15 23 22 40 21 24 -3 42 19 25 30 -6 4 -10 12
-10 18 0 7 4 6 10 -3 9 -13 10 -13 10 0z m76 -49 c-3 -4 5 -18 19 -31 13 -12
21 -28 19 -35 -3 -7 0 -16 7 -21 8 -4 10 -3 5 4 -4 7 -2 20 3 29 6 10 11 12
11 6 0 -23 2 -28 12 -40 7 -8 4 -12 -9 -12 -10 0 -31 -2 -46 -4 -27 -4 -27 -4
-10 15 14 16 15 21 3 28 -10 6 -28 -6 -66 -47 -41 -45 -55 -54 -70 -48 -11 5
-23 7 -27 6 -4 -1 -3 7 2 18 6 10 7 22 3 26 -4 5 -1 5 6 1 6 -4 12 -2 12 4 0
6 5 8 10 5 8 -5 7 -11 -1 -21 -8 -10 -9 -18 -2 -25 11 -11 12 -7 15 53 2 20 6
34 10 32 5 -3 8 0 8 6 0 6 5 8 11 5 7 -5 5 -13 -6 -25 -12 -13 -13 -20 -5 -25
9 -5 9 -10 1 -18 -6 -6 -11 -15 -11 -21 0 -5 12 6 26 25 14 19 30 33 35 32 5
-2 9 2 9 7 0 13 -13 13 -27 -1 -9 -9 -12 -7 -10 10 1 16 6 20 20 15 14 -4 18
-2 14 7 -2 8 2 22 11 32 16 18 27 23 18 8z m-249 -35 c-1 -6 7 -10 18 -9 18 1
17 -1 -6 -21 -24 -20 -25 -24 -10 -35 9 -6 10 -9 3 -6 -6 4 -15 -1 -18 -9 -3
-9 -10 -14 -14 -11 -9 5 -8 24 1 40 3 6 5 22 4 36 -1 15 4 26 11 26 7 0 12 -5
11 -11z m-159 -44 c9 9 15 9 24 0 17 -17 18 -40 3 -46 -10 -3 -12 2 -9 20 2
13 0 24 -5 24 -4 0 -8 -8 -8 -17 0 -35 -3 -44 -13 -38 -6 4 -7 13 -1 24 7 13
6 18 -4 18 -7 0 -11 -6 -8 -13 2 -6 0 -15 -6 -18 -6 -4 -8 -14 -5 -24 5 -14 4
-14 -4 -2 -6 8 -8 18 -6 22 3 4 0 8 -5 8 -14 0 -14 -6 0 -32 9 -16 8 -19 -3
-15 -7 2 -12 9 -11 15 1 5 -4 13 -13 16 -11 4 -12 2 -5 -13 10 -18 6 -31 -10
-31 -4 0 -6 9 -4 20 2 11 0 18 -5 15 -9 -6 -8 -24 3 -42 4 -6 2 -15 -4 -19 -7
-4 -9 -3 -5 4 3 6 1 14 -6 18 -7 4 -10 3 -5 -1 4 -5 0 -19 -8 -32 -9 -13 -11
-23 -6 -23 10 0 8 -34 -3 -61 -4 -9 -14 -16 -23 -16 -13 0 -13 2 3 14 25 18 3
16 -24 -3 -12 -8 -22 -11 -22 -6 0 6 7 13 16 16 13 5 14 9 3 22 -7 8 -8 14 -3
13 5 -1 17 1 27 6 14 6 15 10 6 21 -6 8 -16 11 -23 7 -6 -3 -3 3 7 14 9 11 14
23 10 26 -3 4 -1 8 5 8 7 1 18 2 25 3 6 1 11 9 9 18 -1 8 5 18 13 22 9 3 14
10 11 15 -4 5 2 8 11 6 10 -1 24 2 31 8 8 6 12 6 12 -3 0 -8 2 -11 5 -8 10 9
-7 38 -18 31 -6 -3 -7 -1 -3 5 5 8 13 9 25 2 12 -6 22 -5 29 2z m342 -12 c0
-5 -2 -10 -4 -10 -3 0 -8 5 -11 10 -3 6 -1 10 4 10 6 0 11 -4 11 -10z m-224
-32 c-1 -17 -7 -23 -26 -24 -14 -1 -31 -2 -37 -3 -7 0 -23 -22 -34 -47 -24
-51 -42 -63 -64 -44 -21 17 -11 24 14 10 14 -7 21 -7 21 0 0 5 -7 10 -16 10
-8 0 -12 5 -9 10 4 6 14 9 23 8 9 -2 16 3 15 10 -2 6 2 12 8 12 8 0 7 5 -1 15
-18 21 -8 27 47 29 39 2 47 5 45 19 -2 9 1 17 6 17 5 0 9 -10 8 -22z m-120
-54 c2 -20 0 -24 -9 -15 -13 13 -30 15 -22 2 3 -6 -4 -15 -15 -21 -17 -9 -19
-14 -9 -26 14 -17 -2 -41 -20 -30 -18 11 -13 26 7 20 13 -5 14 -4 3 4 -7 5
-10 16 -7 23 4 8 1 6 -7 -3 -8 -10 -17 -15 -21 -11 -4 4 -4 0 0 -10 3 -9 2
-17 -3 -17 -17 0 -12 39 7 45 10 3 20 15 23 26 3 12 10 18 17 14 16 -10 42 15
35 34 -5 12 -3 13 6 4 6 -6 13 -24 15 -39z m549 17 c-3 -6 -11 -8 -17 -5 -6 4
-5 9 3 15 16 10 23 4 14 -10z m-730 -190 c3 -5 1 -12 -5 -16 -5 -3 -10 1 -10
9 0 18 6 21 15 7z m1580 -851 c9 -14 -14 -52 -29 -47 -14 6 -19 -30 -5 -38 5
-3 6 1 3 9 -4 10 -1 16 8 16 7 0 14 -8 15 -19 1 -15 -5 -18 -32 -16 -21 1 -32
-2 -28 -8 4 -6 1 -7 -8 -2 -12 7 -12 5 -1 -6 11 -12 14 -12 21 0 5 8 11 9 15
3 3 -5 -1 -13 -10 -16 -9 -3 -12 -11 -8 -18 6 -10 5 -10 -8 0 -13 10 -18 8
-32 -12 -19 -30 -20 -37 -3 -33 6 1 11 -4 9 -12 -1 -7 2 -18 7 -25 6 -7 3 -23
-8 -47 -10 -19 -16 -42 -14 -50 3 -8 -2 -6 -11 6 -15 17 -15 20 -1 28 9 4 13
12 10 18 -4 5 -2 9 2 9 5 0 10 10 10 22 2 18 0 20 -7 8 -13 -20 -12 -4 1 23
10 21 10 21 -5 3 -9 -11 -17 -17 -17 -13 -1 4 -2 11 -3 16 0 5 -5 13 -10 18
-5 5 -6 2 -1 -6 6 -10 4 -12 -6 -6 -12 8 -12 6 0 -8 13 -17 7 -22 -21 -18 -4
0 -5 -9 -3 -20 3 -14 0 -19 -9 -16 -18 7 -42 -8 -27 -17 6 -4 11 -2 11 4 0 7
6 8 19 1 10 -6 21 -7 25 -3 4 3 4 -1 0 -11 -5 -13 -10 -15 -19 -7 -14 12 -33
10 -51 -5 -7 -6 -8 -12 -2 -16 5 -3 2 -11 -6 -18 -10 -8 -16 -9 -21 -1 -3 5
-2 10 3 10 5 0 9 7 9 15 0 8 -4 15 -9 15 -5 0 4 11 20 25 17 14 35 25 42 25 6
0 8 5 5 10 -3 6 1 13 9 16 9 3 14 10 11 14 -3 4 11 22 31 39 19 17 32 35 29
40 -3 5 6 18 19 28 13 11 26 28 28 39 2 10 10 18 17 16 9 -2 11 3 7 14 -5 12
-2 15 10 10 14 -5 15 -4 4 9 -8 9 -8 15 -2 15 6 0 14 -4 17 -10z m-120 -254
c2 -14 -3 -27 -10 -30 -10 -3 -12 0 -8 11 5 12 2 15 -9 10 -15 -5 -16 -2 -9
32 1 2 8 -2 16 -9 13 -11 14 -10 9 6 -4 10 -4 16 1 12 4 -4 9 -18 10 -32z
m-45 -56 c6 -11 16 -20 23 -20 8 0 7 4 -3 10 -8 5 -11 12 -7 16 10 11 19 -2
22 -31 4 -35 -20 -32 -37 5 -7 17 -16 30 -20 30 -12 0 -5 -24 11 -36 12 -10 9
-15 -20 -30 -19 -10 -41 -17 -49 -15 -8 2 -12 -1 -7 -5 4 -4 -1 -16 -10 -27
-20 -22 -20 -26 -1 -38 10 -7 8 -9 -6 -9 -12 0 -16 -5 -12 -16 5 -12 1 -14
-17 -10 l-22 6 23 -11 c12 -7 22 -16 22 -21 0 -12 -10 -10 -26 7 -8 8 -22 11
-32 8 -14 -6 -15 -4 -5 9 7 8 9 19 5 23 -4 5 1 5 11 2 32 -12 42 4 16 24 -24
18 -8 22 21 5 12 -7 13 -6 3 5 -14 14 -18 33 -5 25 4 -2 14 -1 21 3 9 6 10 11
2 15 -6 4 -11 2 -11 -4 0 -6 -5 -8 -11 -4 -8 4 -7 9 2 16 11 8 10 9 -2 5 -9
-3 -22 0 -29 6 -10 9 -11 9 -6 0 3 -6 2 -14 -4 -18 -5 -3 -10 -1 -10 6 0 7 -3
9 -6 6 -4 -4 -2 -12 4 -20 8 -10 7 -13 -7 -13 -13 0 -17 5 -12 17 7 18 71 75
71 63 0 -4 7 1 16 12 12 15 15 16 10 2 -8 -28 16 -39 43 -17 14 11 18 19 10
19 -11 0 -11 2 1 10 22 14 28 12 40 -10z m-137 -96 c-4 -12 -8 -13 -14 -3 -9
15 -2 32 11 24 5 -3 6 -13 3 -21z m-65 4 c-2 -7 2 -12 9 -11 7 2 24 -8 37 -22
14 -14 22 -25 18 -25 -5 0 -13 5 -20 12 -9 9 -12 9 -13 0 -3 -26 -4 -31 -12
-38 -4 -4 0 -16 10 -26 15 -17 15 -19 -1 -37 -20 -22 -56 -24 -56 -3 0 8 5 10
13 6 10 -6 10 -4 0 7 -18 18 -16 34 1 20 11 -9 16 -9 22 0 4 7 2 15 -4 17 -7
2 -10 7 -8 11 7 11 -12 36 -21 28 -4 -5 -1 -13 7 -18 13 -9 12 -10 -2 -5 -11
3 -15 1 -12 -8 3 -8 0 -17 -7 -22 -9 -5 -10 -2 -6 10 4 10 1 19 -7 22 -7 3
-13 10 -13 17 0 7 -4 21 -9 31 -5 13 -4 17 4 12 6 -3 13 -2 17 4 4 6 15 4 31
-6 15 -10 24 -12 24 -5 0 6 -7 11 -15 11 -16 0 -20 12 -8 23 11 11 23 8 21 -5z
m-1441 -32 c-8 -19 16 -38 37 -30 9 3 16 1 16 -5 0 -6 3 -10 8 -9 13 4 88 -43
100 -63 15 -24 -2 -25 -20 -1 -13 17 -26 22 -60 25 -13 1 -14 4 -6 14 8 10 7
12 -4 8 -9 -4 -18 1 -22 10 -3 9 -10 14 -16 10 -8 -5 -20 0 -59 22 -5 3 19 33
26 33 3 0 3 -6 0 -14z m1593 4 c0 -5 -2 -10 -4 -10 -3 0 -8 5 -11 10 -3 6 -1
10 4 10 6 0 11 -4 11 -10z m-1560 -20 c0 -5 -4 -10 -9 -10 -6 0 -13 5 -16 10
-3 6 1 10 9 10 9 0 16 -4 16 -10z m1327 -2 c8 -13 9 -18 12 -39 0 -5 5 -7 11
-4 6 3 7 -1 4 -9 -4 -9 0 -18 10 -22 21 -8 4 -40 -25 -49 -12 -4 -18 -10 -13
-14 21 -15 -7 -68 -28 -55 -13 8 -9 24 5 20 6 -1 9 -1 5 1 -5 3 -8 9 -8 14 0
6 4 8 9 5 5 -3 9 7 10 22 1 45 4 62 11 62 15 0 19 -14 9 -31 -7 -14 -6 -17 5
-13 22 8 6 59 -19 62 -8 1 -22 3 -30 4 -9 1 -14 7 -11 14 3 8 0 11 -9 7 -13
-4 -13 -8 0 -26 8 -12 15 -26 15 -32 -1 -5 -8 1 -16 15 -9 15 -13 18 -9 6 4
-15 3 -17 -9 -7 -11 9 -17 8 -29 -3 -17 -18 -28 -11 -21 12 5 14 4 14 -6 -1
-6 -9 -17 -14 -23 -11 -8 5 -8 3 1 -7 6 -7 12 -18 12 -23 -1 -6 -9 -1 -20 12
-10 12 -21 18 -24 13 -4 -5 -3 -11 1 -14 5 -2 1 -2 -7 0 -10 2 -8 -2 4 -12 11
-8 17 -15 14 -15 -4 0 -14 -3 -23 -6 -9 -4 -15 -3 -14 2 3 20 -2 34 -12 34 -8
0 -7 -6 2 -17 10 -12 10 -15 1 -9 -8 5 -11 3 -10 -6 2 -7 -3 -12 -10 -10 -9 1
-11 -2 -6 -10 4 -8 -1 -6 -12 3 -25 20 -38 19 -60 -6 -11 -12 -16 -16 -12 -10
5 7 2 12 -7 12 -8 0 -11 -5 -8 -11 3 -6 0 -5 -8 2 -12 11 -12 14 0 21 8 5 21
7 29 3 9 -3 13 -1 9 4 -3 6 2 11 11 12 37 4 51 8 66 21 8 7 19 10 24 7 6 -3
15 1 22 8 6 8 20 13 30 11 10 -2 21 3 24 12 4 9 9 13 13 10 3 -4 12 -2 20 4 9
9 13 8 13 0 0 -6 -5 -11 -12 -11 -6 0 -9 -2 -6 -5 8 -9 38 6 32 16 -3 5 6 14
20 21 14 6 26 15 26 20 0 12 18 10 27 -4z m-18 -64 c4 3 8 -1 8 -9 0 -8 -4
-15 -8 -15 -4 0 -6 -8 -5 -17 2 -10 -5 -36 -15 -58 -15 -34 -23 -40 -51 -41
-53 -2 -58 -3 -55 -15 1 -6 -4 -14 -11 -16 -20 -7 -9 20 13 35 20 13 20 13 -1
7 -14 -4 -21 -1 -21 10 0 9 6 14 14 11 8 -3 11 -1 8 4 -7 12 -3 12 19 4 9 -3
14 -10 11 -14 -3 -5 0 -12 6 -16 8 -4 9 -3 5 4 -5 8 -1 10 10 5 12 -4 15 -2
12 8 -3 8 -10 13 -16 12 -6 -2 -10 6 -9 17 2 29 12 25 29 -11 12 -23 17 -27
21 -15 4 9 2 16 -4 16 -6 0 -7 5 -4 10 4 6 10 8 15 5 5 -3 7 4 5 15 -2 11 0
20 5 20 5 0 7 15 5 33 -2 17 -1 26 2 19 2 -6 8 -10 12 -8z m-29 -36 c0 -13
-18 -9 -22 4 -3 8 -7 6 -11 -5 -3 -9 -3 -16 1 -16 25 4 32 -1 20 -15 -11 -11
-15 -11 -25 3 -12 16 -28 9 -28 -12 0 -7 -12 -11 -28 -11 -28 1 -29 0 -30 -43
-1 -27 -12 -43 -31 -43 -5 0 -1 9 9 20 18 20 18 21 1 14 -18 -7 -18 -6 0 22
12 18 14 25 5 20 -10 -6 -12 -5 -7 2 4 7 2 12 -4 12 -7 0 -9 -8 -5 -19 3 -11
1 -22 -4 -26 -7 -3 -8 0 -5 9 3 9 2 16 -3 16 -5 0 -10 -7 -11 -15 -1 -8 -3
-22 -4 -30 -1 -8 -6 -12 -11 -8 -5 3 -5 -2 1 -13 5 -11 8 -30 7 -44 -2 -14 -4
-29 -4 -33 -1 -5 -5 -6 -10 -3 -5 3 -7 19 -5 36 3 23 0 29 -9 24 -9 -6 -9 -4
1 8 10 12 10 18 -2 27 -11 9 -15 8 -19 -3 -4 -9 -15 -13 -27 -11 -15 3 -20 0
-17 -9 3 -8 0 -13 -9 -12 -14 2 -16 9 -7 34 4 9 9 10 19 1 11 -9 14 -8 14 2 0
12 2 12 9 1 7 -11 10 -10 15 3 3 9 3 22 0 28 -3 7 0 5 8 -3 7 -8 20 -16 28
-18 8 -2 12 0 8 3 -4 4 -3 15 2 25 6 12 5 17 -5 17 -7 0 -11 -6 -8 -14 3 -7 0
-13 -7 -13 -6 0 -9 4 -5 9 3 5 1 12 -5 16 -6 4 -8 11 -4 16 3 6 -3 5 -15 -2
-15 -10 -17 -16 -8 -22 8 -6 5 -7 -8 -3 -19 6 -19 5 -2 -8 22 -17 22 -21 -1
-23 -25 -2 -24 25 0 57 24 30 21 29 46 7 17 -16 21 -16 32 -2 7 8 16 12 21 9
14 -8 50 16 42 29 -4 8 -2 8 9 -1 19 -15 34 0 22 21 -6 9 -5 9 8 -1 12 -10 18
-10 28 2 9 12 16 13 31 3 10 -6 19 -15 19 -19z m-1170 -3 c19 -14 40 -23 47
-21 7 3 10 -1 6 -11 -5 -12 -1 -14 18 -9 18 5 20 5 8 -3 -18 -12 -62 -3 -53
10 3 5 0 10 -5 10 -6 1 -15 3 -21 4 -5 1 -14 3 -20 4 -12 1 -34 41 -22 41 4 0
23 -11 42 -25z m154 -18 c4 4 4 0 0 -10 -3 -10 -1 -17 5 -17 6 0 11 6 11 13 0
8 4 7 10 -3 9 -13 10 -13 10 0 0 13 1 13 10 0 5 -8 10 -11 10 -5 0 5 5 4 11
-2 6 -6 18 -9 25 -6 8 3 14 1 14 -5 0 -5 7 -9 16 -8 9 0 19 -6 22 -14 4 -12 2
-13 -9 -3 -10 10 -16 10 -28 0 -12 -10 -13 -9 -6 2 6 10 4 12 -5 6 -9 -6 -11
-4 -6 6 4 8 0 5 -10 -6 -14 -17 -16 -18 -10 -2 4 12 2 16 -6 11 -6 -4 -8 -3
-5 2 3 6 -11 10 -32 9 -32 0 -38 -3 -36 -20 4 -35 5 -36 15 -30 6 3 10 -1 10
-9 0 -25 -14 -19 -33 16 -15 26 -20 29 -28 17 -9 -12 -10 -12 -6 1 2 8 9 14
15 13 7 -2 9 10 7 28 -3 24 -1 28 9 20 7 -6 16 -8 20 -4z m713 -41 c22 -34 22
-34 2 -55 -11 -12 -24 -19 -29 -16 -5 3 -11 -4 -15 -15 -3 -11 -15 -25 -26
-31 -13 -7 -18 -16 -14 -29 4 -13 -1 -22 -15 -30 -12 -6 -24 -9 -28 -6 -9 10
-10 46 0 52 7 5 13 -18 9 -39 -1 -5 3 -6 9 -2 6 4 8 15 5 25 -4 12 1 22 12 29
10 6 13 11 8 11 -15 0 -16 36 -2 38 12 1 48 9 57 12 3 1 9 2 14 1 5 -1 3 6 -5
15 -8 10 -9 15 -4 12 6 -4 11 2 11 13 0 18 -1 18 -18 -3 -9 -13 -22 -23 -28
-23 -6 0 -15 -6 -19 -14 -7 -10 -9 -7 -8 10 1 16 8 25 19 25 9 0 14 -4 12 -8
-3 -4 -3 -8 0 -8 3 0 10 8 15 18 8 15 6 18 -17 16 -43 -2 -44 -3 -38 -21 5
-15 4 -15 -9 1 -8 11 -15 14 -15 7 0 -7 -4 -10 -9 -7 -4 3 -17 -2 -27 -10 -10
-9 -13 -13 -6 -9 7 4 11 2 10 -3 -2 -6 2 -10 7 -10 6 -1 9 5 7 13 -1 8 5 12
15 11 10 -2 19 -11 21 -22 3 -16 1 -17 -8 -4 -10 13 -11 13 -7 -1 3 -10 -1
-15 -13 -14 -25 2 -51 25 -43 39 3 6 0 6 -8 -1 -18 -18 -25 -16 -26 7 -2 18 3
22 23 19 4 0 11 5 15 13 5 7 9 8 9 3 0 -6 9 -11 20 -12 11 -1 19 1 16 5 -2 4
6 8 17 9 36 4 56 9 63 16 12 12 18 8 41 -27z m-657 -16 c10 -16 48 -21 56 -8
3 5 12 4 20 -3 11 -9 16 -7 22 12 5 13 11 18 16 11 3 -6 2 -13 -4 -17 -6 -4
-7 -11 -4 -17 5 -7 2 -8 -6 -3 -8 5 -11 4 -7 -2 3 -5 0 -10 -8 -10 -8 0 -12 4
-10 8 3 4 -3 6 -12 4 -10 -2 -22 -4 -27 -4 -4 -1 -6 -7 -3 -15 4 -9 -2 -13
-16 -12 -11 1 -23 8 -25 16 -4 12 -3 13 10 2 13 -10 17 -10 21 1 7 18 -32 15
-44 -4 -13 -21 -11 -1 3 24 10 19 9 20 -3 10 -10 -8 -20 -9 -29 -2 -13 8 -13
10 -1 18 18 12 41 8 51 -9z m160 0 c0 -5 -5 -12 -12 -16 -7 -5 -8 -2 -3 7 5 8
6 12 2 9 -3 -3 -5 -9 -6 -13 0 -5 -9 -17 -21 -27 -17 -15 -18 -19 -5 -24 9 -3
14 -2 11 3 -3 5 2 15 11 22 14 12 15 11 8 -10 -6 -19 -4 -23 7 -18 19 7 52
-29 35 -37 -7 -3 -1 -4 13 -1 14 3 19 2 13 -1 -7 -3 -13 -10 -13 -16 0 -7 4
-7 13 0 6 5 31 9 54 8 23 -1 40 1 37 5 -2 4 0 10 4 13 5 3 14 -5 20 -18 8 -19
17 -23 42 -20 30 4 31 2 19 -14 -13 -15 -12 -16 4 -3 21 16 34 9 14 -8 -11 -8
-22 -7 -45 5 -18 8 -37 12 -43 8 -7 -4 -9 -3 -6 3 4 6 0 13 -8 17 -8 3 -17 1
-20 -5 -4 -5 -12 -6 -18 -2 -17 10 -47 11 -53 1 -3 -5 0 -17 7 -26 7 -9 -3 -1
-23 18 -19 19 -33 38 -31 42 2 4 -6 12 -17 18 -15 8 -20 8 -21 -2 0 -10 -2
-10 -6 0 -2 6 -9 12 -14 12 -6 0 -8 -4 -4 -9 9 -16 -12 -22 -38 -12 -20 8 -28
6 -39 -7 -12 -16 -11 -16 6 -2 16 13 19 13 15 1 -7 -21 -22 -23 -44 -7 -15 11
-17 18 -9 26 15 15 65 21 57 6 -3 -6 -3 -8 2 -4 4 4 15 2 23 -5 13 -9 14 -9 8
1 -4 7 -2 12 4 12 6 0 8 5 4 11 -4 7 -9 8 -13 1 -4 -7 -12 -6 -24 3 -11 7 -14
16 -8 19 5 4 12 2 15 -3 4 -5 12 -8 19 -7 21 3 38 17 32 27 -4 5 1 12 9 15 9
3 13 10 10 15 -3 5 2 6 10 3 9 -3 16 -10 16 -14z m30 0 c0 13 1 13 10 0 9 -13
10 -13 10 0 0 13 2 13 9 1 7 -11 13 -12 23 -4 21 18 24 19 41 5 10 -9 17 -10
22 -2 3 6 12 7 18 3 17 -11 41 -10 49 2 5 6 8 5 8 -2 0 -7 5 -13 11 -13 5 0 8
4 5 8 -2 4 6 9 20 10 13 1 24 -3 24 -8 0 -18 2 -25 11 -42 6 -10 5 -19 -1 -23
-9 -6 -14 8 -11 28 0 4 -4 7 -10 7 -6 0 -8 -7 -5 -16 5 -13 4 -14 -7 -6 -8 7
-17 9 -20 5 -4 -3 -7 -3 -7 0 0 4 12 13 26 20 21 11 23 15 11 20 -10 4 -21 -3
-31 -19 -18 -26 -42 -33 -32 -8 4 10 2 13 -6 8 -7 -4 -8 -3 -4 4 4 7 3 12 -2
12 -14 0 -22 -26 -16 -52 3 -13 6 -28 6 -35 1 -7 5 -10 10 -7 4 3 5 -2 1 -11
-4 -13 -8 -14 -14 -4 -4 7 -6 16 -3 20 8 14 -22 16 -43 2 -16 -10 -23 -11 -28
-2 -5 8 -10 8 -14 0 -5 -7 -18 -4 -39 9 -31 19 -37 39 -20 66 4 6 1 11 -7 11
-7 0 -12 -8 -10 -18 2 -10 -2 -20 -9 -22 -13 -5 -14 16 -1 46 6 15 10 16 16 5
7 -10 9 -10 9 2z m175 -75 c1 -5 6 -9 13 -8 7 2 9 -4 5 -13 -4 -11 -2 -15 7
-12 7 2 14 14 15 26 1 17 -2 19 -16 11 -14 -7 -17 -6 -13 5 6 16 19 15 50 -2
18 -9 24 -9 34 3 7 8 9 15 6 15 -4 0 -4 5 0 12 5 8 13 4 26 -11 10 -13 24 -21
31 -18 8 3 20 1 28 -4 8 -5 10 -9 4 -10 -5 0 -24 -2 -42 -4 -27 -3 -31 0 -28
16 2 11 0 17 -6 14 -5 -4 -6 -11 -3 -17 5 -7 2 -8 -7 -3 -12 7 -12 6 -1 -7 10
-13 10 -17 -4 -22 -12 -5 -15 -2 -10 11 4 10 4 14 0 11 -4 -4 -16 -3 -28 3
-19 9 -19 9 -3 -4 17 -14 24 -33 9 -23 -4 2 -14 1 -22 -5 -11 -6 -11 -9 -2
-10 6 -1 18 -2 25 -3 6 -1 18 2 25 7 8 7 19 4 32 -8 25 -22 27 -13 3 11 -16
15 -16 17 -2 12 9 -4 22 -1 28 5 8 8 11 8 11 0 0 -7 -4 -14 -10 -18 -5 -3 -7
-12 -4 -19 3 -8 1 -17 -5 -21 -6 -3 -14 1 -17 9 -9 23 -41 20 -49 -4 -3 -11
-11 -20 -16 -20 -14 0 -11 20 4 20 18 1 -25 23 -48 25 -11 1 -18 4 -15 7 3 3
-1 12 -8 21 -7 8 -15 28 -18 44 -4 26 -3 26 8 8 7 -11 13 -24 13 -30z m432 31
c-3 -8 1 -20 9 -26 10 -9 14 -9 14 -1 0 6 5 11 10 11 16 0 12 -17 -6 -24 -9
-4 -22 -1 -30 4 -14 12 -15 50 -1 50 5 0 7 -6 4 -14z m-237 -50 c0 -3 -4 -8
-10 -11 -5 -3 -10 -1 -10 4 0 6 5 11 10 11 6 0 10 -2 10 -4z m125 -26 c3 -5
-1 -10 -9 -10 -9 0 -16 5 -16 10 0 6 4 10 9 10 6 0 13 -4 16 -10z"/>
<path d="M2455 3110 c-4 -6 -10 -8 -15 -5 -5 3 -11 1 -15 -5 -4 -6 -11 -7 -17
-4 -7 4 -8 2 -4 -4 4 -7 2 -13 -3 -13 -6 -1 -15 -2 -21 -3 -16 -2 -16 -9 0
-31 20 -27 40 -30 35 -5 -2 11 4 25 13 32 20 16 47 48 39 48 -3 0 -9 -5 -12
-10z m-37 -35 c-18 -15 -23 -25 -15 -28 8 -4 8 -6 1 -6 -6 -1 -18 7 -25 16 -8
9 -9 14 -3 10 7 -4 23 2 35 13 34 28 39 24 7 -5z"/>
<path d="M2235 2990 c-3 -5 -1 -10 4 -10 6 0 11 5 11 10 0 6 -2 10 -4 10 -3 0
-8 -4 -11 -10z"/>
<path d="M2734 2906 c-3 -9 -9 -14 -13 -11 -4 2 -8 -3 -8 -12 0 -13 3 -13 16
4 15 18 47 21 37 4 -3 -4 1 -8 9 -8 8 0 15 4 15 9 0 4 7 8 16 8 8 0 12 -4 9
-10 -3 -5 -1 -10 5 -10 7 0 10 6 7 13 -2 6 -17 12 -33 12 -16 1 -35 4 -42 8
-7 5 -14 2 -18 -7z"/>
<path d="M2456 2895 c4 -8 10 -15 15 -15 4 0 6 7 3 15 -4 8 -10 15 -15 15 -4
0 -6 -7 -3 -15z"/>
<path d="M2513 2895 c0 -8 4 -12 8 -9 4 2 9 -1 11 -8 3 -7 7 -5 11 6 4 10 3
15 -3 11 -6 -3 -10 -1 -10 4 0 6 -4 11 -8 11 -5 0 -9 -7 -9 -15z"/>
<path d="M2610 2890 c0 -5 5 -10 10 -10 6 0 10 5 10 10 0 6 -4 10 -10 10 -5 0
-10 -4 -10 -10z"/>
<path d="M2555 2879 c-4 -6 -5 -12 -2 -15 2 -3 7 2 10 11 7 17 1 20 -8 4z"/>
<path d="M2910 2884 c0 -6 7 -17 15 -24 16 -13 21 -35 6 -26 -9 6 -41 -35 -41
-51 0 -4 9 5 19 20 10 16 22 28 27 27 16 -3 13 15 -6 40 -11 14 -20 20 -20 14z"/>
<path d="M2436 2865 c-3 -9 -6 -22 -5 -28 0 -7 5 -1 10 12 5 13 8 26 5 28 -2
2 -6 -3 -10 -12z"/>
<path d="M2475 2864 c-10 -8 -14 -14 -8 -14 7 0 15 5 19 11 4 8 9 7 15 -2 6
-10 9 -10 9 -2 0 19 -14 22 -35 7z"/>
<path d="M2575 2870 c-3 -6 1 -7 10 -4 11 5 14 2 9 -12 -5 -15 -4 -16 4 -4 11
15 7 30 -8 30 -5 0 -12 -4 -15 -10z"/>
<path d="M2739 2878 c0 -2 -2 -13 -3 -25 -2 -16 1 -20 9 -13 7 5 16 6 20 2 5
-4 5 -2 2 5 -4 6 -1 14 5 17 7 3 2 3 -11 0 -16 -4 -21 -3 -17 5 4 6 5 11 2 11
-3 0 -6 -1 -7 -2z"/>
<path d="M2792 2857 c-8 -10 -6 -13 7 -13 11 0 17 6 14 13 -3 7 -6 13 -8 13
-1 0 -7 -6 -13 -13z"/>
<path d="M2830 2859 c0 -5 5 -7 10 -4 6 3 10 8 10 11 0 2 -4 4 -10 4 -5 0 -10
-5 -10 -11z"/>
<path d="M2530 2851 c0 -6 4 -13 10 -16 6 -3 7 1 4 9 -7 18 -14 21 -14 7z"/>
<path d="M2556 2823 c-6 -14 -5 -15 5 -6 7 7 10 15 7 18 -3 3 -9 -2 -12 -12z"/>
<path d="M2956 2824 c-8 -20 -8 -24 2 -24 4 0 8 9 9 20 2 24 -3 26 -11 4z"/>
<path d="M2851 2814 c0 -11 3 -14 6 -6 3 7 2 16 -1 19 -3 4 -6 -2 -5 -13z"/>
<path d="M3008 2812 c-7 -11 -17 -20 -23 -20 -5 -1 -11 -8 -11 -17 -2 -13 -1
-13 3 0 2 8 9 13 14 9 5 -3 12 2 15 10 3 9 10 14 14 11 5 -3 11 -1 14 4 12 19
-13 21 -26 3z"/>
<path d="M2352 2808 c2 -6 10 -13 16 -14 7 -1 8 0 2 3 -5 2 -8 9 -4 14 3 5 0
9 -6 9 -7 0 -10 -5 -8 -12z"/>
<path d="M2470 2809 c0 -5 5 -7 10 -4 6 3 10 8 10 11 0 2 -4 4 -10 4 -5 0 -10
-5 -10 -11z"/>
<path d="M2510 2816 c0 -2 7 -7 16 -10 8 -3 12 -2 9 4 -6 10 -25 14 -25 6z"/>
<path d="M2133 2795 c0 -8 4 -12 9 -9 5 3 6 10 3 15 -9 13 -12 11 -12 -6z"/>
<path d="M2325 2795 c11 -9 19 -19 18 -23 -1 -4 0 -9 2 -10 2 -2 2 4 1 13 -1
10 -11 22 -22 27 -18 9 -17 8 1 -7z"/>
<path d="M3026 2785 c-11 -8 -16 -18 -11 -22 4 -5 10 -3 12 4 2 7 10 11 16 9
7 -1 9 -1 4 1 -4 3 -5 9 -1 14 7 12 2 11 -20 -6z"/>
<path d="M2456 2777 c3 -10 9 -15 12 -12 3 3 0 11 -7 18 -10 9 -11 8 -5 -6z"/>
<path d="M2795 2779 c-4 -6 -5 -12 -2 -15 2 -3 7 2 10 11 7 17 1 20 -8 4z"/>
<path d="M2940 2780 c0 -5 -7 -7 -15 -4 -8 4 -15 1 -15 -7 0 -7 3 -9 7 -6 3 4
11 3 17 -3 8 -6 12 -3 13 11 1 10 0 19 -3 19 -2 0 -4 -4 -4 -10z"/>
<path d="M2300 2766 c0 -2 7 -7 16 -10 8 -3 12 -2 9 4 -6 10 -25 14 -25 6z"/>
<path d="M2853 2755 c0 -8 4 -12 9 -9 5 3 6 10 3 15 -9 13 -12 11 -12 -6z"/>
<path d="M2275 2739 c-4 -12 -3 -25 2 -29 4 -5 8 4 9 21 1 34 -2 37 -11 8z"/>
<path d="M2386 2748 c3 -5 10 -6 15 -3 13 9 11 12 -6 12 -8 0 -12 -4 -9 -9z"/>
<path d="M2996 2747 c3 -10 9 -15 12 -12 3 3 0 11 -7 18 -10 9 -11 8 -5 -6z"/>
<path d="M2976 2737 c3 -10 9 -15 12 -12 3 3 0 11 -7 18 -10 9 -11 8 -5 -6z"/>
<path d="M2295 2730 c-3 -6 1 -7 9 -4 18 7 21 14 7 14 -6 0 -13 -4 -16 -10z"/>
<path d="M2896 2728 c3 -5 10 -6 15 -3 13 9 11 12 -6 12 -8 0 -12 -4 -9 -9z"/>
<path d="M3035 2700 c21 -24 26 -25 19 -6 -3 8 -13 17 -22 21 -13 5 -13 2 3
-15z"/>
<path d="M3079 2718 c-5 -9 -5 -48 -1 -43 6 6 11 45 5 45 -2 0 -4 -1 -4 -2z"/>
<path d="M2975 2699 c-4 -6 -5 -12 -2 -15 2 -3 7 2 10 11 7 17 1 20 -8 4z"/>
<path d="M2246 2692 c-3 -5 1 -9 9 -9 8 0 15 4 15 9 0 4 -4 8 -9 8 -6 0 -12
-4 -15 -8z"/>
<path d="M2356 2688 c3 -5 10 -6 15 -3 13 9 11 12 -6 12 -8 0 -12 -4 -9 -9z"/>
<path d="M2115 2661 c3 -5 1 -12 -5 -16 -6 -4 -8 -11 -5 -16 8 -12 35 -12 35
1 0 5 -8 7 -17 4 -17 -5 -17 -5 0 9 16 13 16 15 2 21 -9 3 -13 2 -10 -3z"/>
<path d="M2195 2660 c3 -5 8 -10 11 -10 2 0 4 5 4 10 0 6 -5 10 -11 10 -5 0
-7 -4 -4 -10z"/>
<path d="M2226 2653 c-6 -14 -5 -15 5 -6 7 7 10 15 7 18 -3 3 -9 -2 -12 -12z"/>
<path d="M2270 2667 c0 -2 6 -10 14 -16 11 -9 16 -9 22 1 4 7 4 10 -1 6 -4 -4
-14 -3 -22 3 -7 6 -13 9 -13 6z"/>
<path d="M3090 2661 c0 -7 -4 -9 -10 -6 -5 3 -10 1 -10 -4 0 -6 4 -11 9 -11
13 0 25 20 17 27 -3 4 -6 1 -6 -6z"/>
<path d="M2151 2644 c0 -11 3 -14 6 -6 3 7 2 16 -1 19 -3 4 -6 -2 -5 -13z"/>
<path d="M3016 2648 c3 -5 10 -6 15 -3 13 9 11 12 -6 12 -8 0 -12 -4 -9 -9z"/>
<path d="M2197 2626 c-3 -8 1 -22 9 -33 14 -17 15 -17 6 2 -5 11 -7 26 -5 33
6 17 -4 15 -10 -2z"/>
<path d="M2154 2613 c3 -6 0 -13 -6 -16 -7 -2 -11 -7 -8 -10 3 -3 12 -2 20 3
13 8 13 11 1 22 -8 8 -11 8 -7 1z"/>
<path d="M2115 2600 c-4 -6 -2 -17 5 -24 7 -10 8 -16 0 -19 -6 -3 -5 -4 2 -2
7 1 11 9 9 16 -2 8 -4 20 -4 27 0 15 -4 15 -12 2z"/>
<path d="M3075 2601 c-3 -5 -2 -12 3 -15 5 -3 9 1 9 9 0 17 -3 19 -12 6z"/>
<path d="M2160 2570 c-8 -5 -12 -11 -10 -14 3 -2 14 2 24 10 22 15 10 19 -14
4z"/>
<path d="M2175 2549 c-4 -5 2 -6 12 -2 16 6 17 5 3 -13 -14 -19 -14 -19 8 0
12 11 22 20 22 20 0 7 -41 3 -45 -5z"/>
<path d="M3106 2550 c5 -8 9 -18 9 -22 0 -3 3 -9 7 -13 3 -4 5 0 4 9 -1 9 -8
22 -16 29 -10 10 -11 9 -4 -3z"/>
<path d="M2131 2537 c2 -1 13 -9 24 -17 19 -14 19 -14 6 3 -7 9 -18 17 -24 17
-6 0 -8 -1 -6 -3z"/>
<path d="M2170 2500 c-8 -5 -12 -12 -9 -15 4 -3 12 1 19 10 14 17 11 19 -10 5z"/>
<path d="M2210 2506 c0 -2 8 -10 18 -17 15 -13 16 -12 3 4 -13 16 -21 21 -21
13z"/>
<path d="M3020 2490 c-9 -6 -10 -10 -3 -10 6 0 15 5 18 10 8 12 4 12 -15 0z"/>
<path d="M3079 2483 c-13 -16 -12 -17 4 -4 9 7 17 15 17 17 0 8 -8 3 -21 -13z"/>
<path d="M2189 2473 c-13 -16 -12 -17 4 -4 9 7 17 15 17 17 0 8 -8 3 -21 -13z"/>
<path d="M3090 2450 c0 -5 5 -10 11 -10 5 0 7 5 4 10 -3 6 -8 10 -11 10 -2 0
-4 -4 -4 -10z"/>
<path d="M2196 2417 c3 -10 9 -15 12 -12 3 3 0 11 -7 18 -10 9 -11 8 -5 -6z"/>
<path d="M2144 2378 c0 -17 2 -17 12 -4 6 9 13 15 15 13 2 -1 3 0 1 2 -8 14
-28 6 -28 -11z"/>
<path d="M2206 2348 c3 -5 10 -6 15 -3 13 9 11 12 -6 12 -8 0 -12 -4 -9 -9z"/>
<path d="M2167 2329 c7 -7 15 -10 18 -7 3 3 -2 9 -12 12 -14 6 -15 5 -6 -5z"/>
<path d="M2187 2289 c7 -7 15 -10 18 -7 3 3 -2 9 -12 12 -14 6 -15 5 -6 -5z"/>
<path d="M2176 2257 c3 -10 9 -15 12 -12 3 3 0 11 -7 18 -10 9 -11 8 -5 -6z"/>
<path d="M2548 3081 c4 -10 1 -12 -8 -6 -9 5 -11 4 -6 -4 6 -8 12 -9 20 -2 8
7 16 7 22 1 6 -6 10 -3 11 9 1 14 -5 18 -21 17 -16 -1 -22 -6 -18 -15z"/>
<path d="M2555 3029 c-7 -10 10 -28 28 -29 12 0 8 17 -7 29 -11 9 -16 9 -21 0z"/>
<path d="M2684 3113 c3 -3 1 -14 -4 -24 -7 -12 -7 -20 0 -24 6 -4 10 -3 9 2
-3 18 2 34 9 29 4 -2 14 -1 22 5 8 5 11 9 5 10 -5 0 -18 2 -28 4 -11 2 -16 1
-13 -2z"/>
<path d="M2617 3068 c-3 -9 1 -22 9 -29 12 -10 15 -10 12 2 -2 8 2 13 8 12 6
-1 11 5 11 12 0 11 -4 12 -13 4 -8 -7 -13 -6 -16 3 -3 8 -6 7 -11 -4z"/>
<path d="M2830 3049 c0 -5 5 -7 10 -4 6 3 10 8 10 11 0 2 -4 4 -10 4 -5 0 -10
-5 -10 -11z"/>
<path d="M2735 3061 c-3 -5 -1 -12 5 -16 5 -3 10 -3 10 1 0 4 10 -1 23 -12 20
-17 20 -16 -2 9 -28 30 -28 31 -36 18z"/>
<path d="M2207 2888 c-7 -20 -7 -28 0 -30 3 -2 8 7 9 20 4 24 -1 30 -9 10z"/>
<path d="M2190 2810 c0 -5 5 -10 10 -10 6 0 10 5 10 10 0 6 -4 10 -10 10 -5 0
-10 -4 -10 -10z"/>
<path d="M2283 2885 c0 -8 4 -12 9 -9 5 3 6 10 3 15 -9 13 -12 11 -12 -6z"/>
<path d="M3619 1713 c-13 -16 -12 -17 4 -4 9 7 17 15 17 17 0 8 -8 3 -21 -13z"/>
<path d="M3439 1534 c-11 -13 -6 -18 15 -15 4 1 14 -3 21 -9 16 -13 27 1 15
20 -12 19 -37 21 -51 4z m45 -10 c3 -8 2 -12 -4 -9 -6 3 -10 10 -10 16 0 14 7
11 14 -7z"/>
<path d="M3523 1538 c-17 -29 -11 -37 15 -21 38 24 40 26 13 18 -16 -5 -21 -4
-17 4 4 6 5 11 2 11 -3 0 -8 -6 -13 -12z"/>
<path d="M3327 1452 c-2 -4 -2 -13 -1 -19 1 -7 2 -18 3 -25 0 -6 7 -3 15 7 13
19 15 19 33 3 17 -16 18 -15 20 14 1 26 -1 28 -9 14 -9 -16 -12 -16 -33 -2
-13 9 -26 12 -28 8z m18 -11 c3 -5 2 -12 -3 -15 -5 -3 -9 1 -9 9 0 17 3 19 12
6z"/>
<path d="M3386 1344 c-9 -24 -2 -26 12 -4 7 11 8 20 3 20 -5 0 -12 -7 -15 -16z"/>
<path d="M3277 1423 c-11 -10 -8 -20 7 -26 8 -3 13 0 12 8 -3 19 -11 27 -19
18z"/>
<path d="M3055 1320 c-4 -6 -12 -7 -18 -4 -7 4 -8 3 -4 -1 13 -15 34 -14 34 1
0 17 -4 18 -12 4z"/>
<path d="M3186 1325 c-17 -13 -32 -22 -36 -20 -3 2 -14 -3 -24 -10 -17 -13
-17 -14 4 -12 12 1 38 16 58 34 43 37 41 44 -2 8z"/>
<path d="M2906 1282 c-3 -5 1 -9 9 -9 8 0 12 4 9 9 -3 4 -7 8 -9 8 -2 0 -6 -4
-9 -8z"/>
<path d="M2755 1250 c-3 -5 -1 -10 4 -10 6 0 11 5 11 10 0 6 -2 10 -4 10 -3 0
-8 -4 -11 -10z"/>
<path d="M2943 1235 c0 -8 4 -12 9 -9 5 3 6 10 3 15 -9 13 -12 11 -12 -6z"/>
<path d="M2883 1183 c-15 -5 -17 -23 -4 -23 5 0 11 7 15 15 3 8 4 15 3 14 -1
0 -8 -3 -14 -6z"/>
<path d="M2300 1170 c-9 -6 -10 -10 -3 -10 6 0 15 5 18 10 8 12 4 12 -15 0z"/>
<path d="M2529 1234 c-10 -12 -14 -12 -20 -2 -6 9 -11 5 -17 -12 -11 -29 9
-60 36 -55 9 1 22 -2 28 -7 8 -5 18 -3 28 7 9 9 21 13 27 9 8 -5 8 -1 0 13 -6
11 -7 23 -4 27 3 3 1 6 -6 6 -7 0 -9 5 -6 10 4 6 11 7 17 4 7 -4 8 -2 4 5 -6
8 -12 9 -20 2 -7 -6 -16 -8 -20 -4 -12 13 -35 11 -47 -3z m54 -18 c16 -18 16
-20 1 -38 -11 -11 -21 -15 -28 -9 -6 5 -19 7 -28 6 -23 -4 -39 17 -28 35 9 13
10 13 11 0 1 -8 1 -18 1 -21 -1 -3 6 -6 13 -6 11 0 12 4 4 14 -9 9 -8 17 1 28
15 18 30 15 53 -9z"/>
<path d="M2537 1224 c-3 -4 1 -17 10 -30 12 -19 19 -22 29 -13 8 6 11 15 8 20
-8 14 -41 29 -47 23z m43 -29 c0 -2 -6 -7 -12 -11 -7 -4 -10 -4 -6 1 4 4 0 14
-10 22 -15 13 -15 13 6 3 12 -6 22 -13 22 -15z"/>
<path d="M2663 1225 c0 -8 4 -12 9 -9 5 3 6 10 3 15 -9 13 -12 11 -12 -6z"/>
<path d="M4085 3430 c-13 -20 4 -24 123 -26 151 -4 214 -10 301 -32 39 -10 73
-16 76 -14 38 39 -137 76 -375 81 -80 2 -120 -1 -125 -9z"/>
<path d="M3810 2711 c0 -6 4 -13 10 -16 6 -3 7 1 4 9 -7 18 -14 21 -14 7z"/>
<path d="M3846 2592 c-3 -5 1 -9 9 -9 8 0 12 4 9 9 -3 4 -7 8 -9 8 -2 0 -6 -4
-9 -8z"/>
<path d="M3893 2441 c0 -11 5 -18 9 -15 4 3 5 11 1 19 -7 21 -12 19 -10 -4z"/>
<path d="M3873 2355 c0 -8 4 -12 9 -9 5 3 6 10 3 15 -9 13 -12 11 -12 -6z"/>
<path d="M3867 2259 c4 -13 8 -18 11 -10 2 7 -1 18 -6 23 -8 8 -9 4 -5 -13z"/>
<path d="M3850 2220 c-9 -6 -10 -10 -3 -10 6 0 15 5 18 10 8 12 4 12 -15 0z"/>
<path d="M3896 2217 c3 -10 9 -15 12 -12 3 3 0 11 -7 18 -10 9 -11 8 -5 -6z"/>
<path d="M3933 2201 c0 -11 5 -18 9 -15 4 3 5 11 1 19 -7 21 -12 19 -10 -4z"/>
<path d="M3850 2172 c0 -4 10 -9 22 -9 18 -2 20 0 8 7 -18 12 -30 13 -30 2z"/>
<path d="M3837 2143 c-4 -3 -7 -11 -7 -17 0 -6 5 -5 12 2 6 6 9 14 7 17 -3 3
-9 2 -12 -2z"/>
<path d="M3870 2111 c0 -6 4 -12 8 -15 5 -3 9 1 9 9 0 8 -4 15 -9 15 -4 0 -8
-4 -8 -9z"/>
<path d="M3919 2083 c-13 -16 -12 -17 4 -4 9 7 17 15 17 17 0 8 -8 3 -21 -13z"/>
<path d="M3828 2083 c6 -2 9 -10 6 -15 -4 -7 -2 -8 4 -4 18 11 14 26 -5 25
-11 0 -13 -3 -5 -6z"/>
<path d="M3800 2074 c0 -6 3 -14 8 -18 4 -4 7 -13 7 -18 0 -6 7 -13 15 -15 12
-4 12 -3 2 5 -8 5 -12 11 -11 13 2 2 -2 13 -9 24 -6 11 -12 15 -12 9z"/>
<path d="M3846 2052 c-3 -5 1 -9 9 -9 8 0 15 4 15 9 0 4 -4 8 -9 8 -6 0 -12
-4 -15 -8z"/>
<path d="M3870 2027 c0 -2 6 -10 14 -16 11 -9 16 -9 22 1 4 7 4 10 -1 6 -4 -4
-14 -3 -22 3 -7 6 -13 9 -13 6z"/>
<path d="M3832 2001 c-11 -7 -10 -9 3 -14 11 -5 14 -3 9 5 -5 8 -2 9 10 5 10
-4 15 -3 11 3 -7 12 -16 12 -33 1z"/>
<path d="M3896 1977 c3 -10 9 -15 12 -12 3 3 0 11 -7 18 -10 9 -11 8 -5 -6z"/>
<path d="M3875 1960 c-4 -6 -12 -7 -18 -4 -7 4 -8 3 -4 -1 13 -15 34 -14 34 1
0 17 -4 18 -12 4z"/>
<path d="M3801 1924 c0 -11 3 -14 6 -6 3 7 2 16 -1 19 -3 4 -6 -2 -5 -13z"/>
<path d="M3837 1933 c-13 -12 -7 -23 11 -22 10 0 12 3 4 6 -6 2 -10 9 -6 14 6
10 0 12 -9 2z"/>
<path d="M3876 1908 c3 -5 10 -6 15 -3 13 9 11 12 -6 12 -8 0 -12 -4 -9 -9z"/>
<path d="M3814 1893 c2 -2 10 -5 18 -7 7 -1 18 -5 24 -8 6 -4 11 -2 11 5 0 7
-13 13 -29 14 -16 0 -27 -1 -24 -4z"/>
<path d="M3786 1862 c-5 -16 19 -82 29 -82 6 0 -6 33 -18 47 -10 14 -3 43 12
43 5 0 7 -10 5 -22 -4 -21 -4 -21 5 -3 4 11 7 23 4 28 -8 14 -32 7 -37 -11z"/>
<path d="M1540 1856 c0 -2 8 -10 18 -17 15 -13 16 -12 3 4 -13 16 -21 21 -21
13z"/>
<path d="M3926 1848 c3 -5 10 -6 15 -3 13 9 11 12 -6 12 -8 0 -12 -4 -9 -9z"/>
<path d="M1593 1815 c0 -8 4 -15 9 -15 4 0 8 4 8 9 0 6 -4 12 -8 15 -5 3 -9
-1 -9 -9z"/>
<path d="M3870 1809 c0 -5 5 -7 10 -4 6 3 10 8 10 11 0 2 -4 4 -10 4 -5 0 -10
-5 -10 -11z"/>
<path d="M1510 1795 c0 -7 30 -13 34 -7 3 4 -4 9 -15 9 -10 1 -19 0 -19 -2z"/>
<path d="M3793 1773 c4 -6 0 -14 -9 -17 -9 -3 -12 -11 -8 -18 5 -8 2 -9 -9 -5
-10 3 -17 2 -17 -4 0 -13 31 -7 32 6 1 6 8 15 16 21 12 9 12 13 2 19 -8 5 -11
4 -7 -2z"/>
<path d="M3873 1765 c0 -8 4 -12 9 -9 5 3 6 10 3 15 -9 13 -12 11 -12 -6z"/>
<path d="M3750 1759 c0 -5 5 -7 10 -4 6 3 10 8 10 11 0 2 -4 4 -10 4 -5 0 -10
-5 -10 -11z"/>
<path d="M3839 1758 c-5 -18 -6 -38 -1 -34 7 8 12 36 6 36 -2 0 -4 -1 -5 -2z"/>
<path d="M3866 1728 c3 -5 10 -6 15 -3 13 9 11 12 -6 12 -8 0 -12 -4 -9 -9z"/>
<path d="M3813 1695 c0 -8 3 -13 5 -10 3 3 12 -1 21 -7 10 -8 9 -4 -3 10 -23
26 -23 26 -23 7z"/>
<path d="M1638 1673 c7 -3 16 -2 19 1 4 3 -2 6 -13 5 -11 0 -14 -3 -6 -6z"/>
<path d="M3700 1671 c0 -9 30 -24 36 -18 2 1 -6 8 -16 15 -11 7 -20 8 -20 3z"/>
<path d="M3779 1678 c0 -2 -2 -13 -3 -25 -2 -19 0 -21 12 -11 9 8 10 14 3 16
-6 2 -9 8 -5 13 3 5 3 9 0 9 -3 0 -6 -1 -7 -2z"/>
<path d="M1704 1646 c-3 -8 -15 -13 -26 -11 -11 3 -18 1 -14 -2 14 -14 37 -10
46 8 6 10 8 19 5 19 -3 0 -8 -6 -11 -14z"/>
<path d="M1613 1635 c0 -8 4 -12 9 -9 5 3 6 10 3 15 -9 13 -12 11 -12 -6z"/>
<path d="M3800 1630 c-12 -7 -10 -9 7 -7 12 0 19 5 17 9 -6 10 -6 10 -24 -2z"/>
<path d="M1634 1608 c-4 -7 -4 -10 1 -6 4 4 15 2 24 -5 14 -11 14 -10 2 6 -16
20 -18 21 -27 5z"/>
<path d="M3701 1607 c-1 -11 -6 -15 -13 -11 -7 5 -8 3 -3 -5 10 -16 29 2 22
21 -4 8 -6 7 -6 -5z"/>
<path d="M1716 1588 c5 -7 2 -9 -7 -6 -10 4 -15 -1 -15 -13 0 -17 2 -17 18 -2
15 14 16 33 2 33 -3 0 -2 -5 2 -12z"/>
<path d="M3815 1590 c-3 -5 -1 -10 4 -10 6 0 11 5 11 10 0 6 -2 10 -4 10 -3 0
-8 -4 -11 -10z"/>
<path d="M1752 1583 c23 -6 49 -49 41 -69 -4 -12 -3 -15 5 -10 7 4 12 12 12
18 0 20 -42 68 -58 67 -16 -1 -16 -2 0 -6z"/>
<path d="M3731 1580 c0 -8 4 -22 9 -30 12 -18 12 -2 0 25 -6 13 -9 15 -9 5z"/>
<path d="M3660 1570 c0 -6 5 -8 10 -5 6 3 10 2 10 -4 0 -5 -5 -12 -10 -14 -6
-3 -5 -4 2 -3 17 3 17 28 1 34 -7 2 -13 -1 -13 -8z"/>
<path d="M1756 1552 c-2 -4 2 -16 10 -27 12 -16 14 -17 14 -2 0 9 -5 17 -11
17 -5 0 -7 5 -4 10 3 6 4 10 1 10 -3 0 -7 -3 -10 -8z"/>
<path d="M1712 1530 c2 -9 -3 -14 -12 -12 -8 2 -11 0 -7 -4 13 -14 35 -12 33
2 -1 7 -6 17 -10 21 -4 4 -6 1 -4 -7z"/>
<path d="M3655 1511 c-3 -5 0 -13 6 -17 7 -4 9 -3 5 4 -3 6 3 12 16 15 23 4
23 4 1 6 -12 0 -24 -3 -28 -8z"/>
<path d="M3714 1494 c0 -20 11 -25 11 -6 0 4 3 12 7 18 4 6 1 11 -5 11 -7 0
-13 -11 -13 -23z"/>
<path d="M1809 1489 l-24 -21 25 16 c28 18 40 20 40 7 0 -5 -8 -11 -18 -13
-19 -5 -27 -38 -9 -38 5 0 7 6 4 14 -4 9 3 16 20 20 20 6 23 9 13 21 -16 20
-23 19 -51 -6z"/>
<path d="M3633 1484 c0 -17 2 -22 7 -13 5 6 6 18 3 26 -8 19 -10 16 -10 -13z"/>
<path d="M1735 1491 c-3 -5 -2 -12 3 -15 5 -3 9 1 9 9 0 17 -3 19 -12 6z"/>
<path d="M1777 1459 c7 -7 15 -10 18 -7 3 3 -2 9 -12 12 -14 6 -15 5 -6 -5z"/>
<path d="M3646 1453 c-6 -14 -5 -15 5 -6 7 7 10 15 7 18 -3 3 -9 -2 -12 -12z"/>
<path d="M1720 1455 c0 -2 6 -8 13 -14 10 -8 14 -7 14 2 0 8 -6 14 -14 14 -7
0 -13 -1 -13 -2z"/>
<path d="M3596 1444 c-9 -24 -2 -26 12 -4 7 11 8 20 3 20 -5 0 -12 -7 -15 -16z"/>
<path d="M3616 1432 c-2 -4 -1 -14 3 -20 6 -10 11 -9 21 3 11 13 10 14 -5 9
-13 -5 -16 -4 -11 4 4 7 5 12 2 12 -3 0 -7 -4 -10 -8z"/>
<path d="M1880 1424 c0 -6 7 -19 15 -30 8 -10 14 -14 14 -9 0 6 -6 19 -14 29
-8 11 -15 15 -15 10z"/>
<path d="M3535 1420 c-4 -6 1 -7 11 -3 12 4 15 3 10 -5 -5 -8 -2 -10 9 -5 13
5 14 7 3 14 -17 11 -26 11 -33 -1z"/>
<path d="M3513 1393 c0 -14 6 -27 13 -30 8 -3 11 -10 7 -16 -4 -6 -1 -7 7 -2
10 6 10 11 -3 20 -21 15 -22 26 -2 19 20 -8 19 -2 -4 18 -17 15 -18 14 -18 -9z"/>
<path d="M1860 1402 c0 -6 -8 -9 -17 -6 -15 5 -16 4 -3 -5 16 -11 40 3 27 16
-4 3 -7 1 -7 -5z"/>
<path d="M3594 1395 c1 -8 8 -21 16 -28 12 -10 12 -9 2 4 -6 9 -9 18 -6 21 3
3 1 9 -4 12 -6 3 -9 -1 -8 -9z"/>
<path d="M1730 1389 c0 -5 5 -7 10 -4 6 3 10 8 10 11 0 2 -4 4 -10 4 -5 0 -10
-5 -10 -11z"/>
<path d="M1795 1392 c3 -3 -2 -13 -11 -23 -12 -14 -13 -18 -2 -25 7 -4 10 -3
5 1 -4 5 2 18 13 30 16 17 17 22 5 22 -8 0 -13 -3 -10 -5z"/>
<path d="M3640 1390 c-9 -6 -10 -10 -3 -10 6 0 15 5 18 10 8 12 4 12 -15 0z"/>
<path d="M3693 1385 c0 -8 4 -12 9 -9 5 3 6 10 3 15 -9 13 -12 11 -12 -6z"/>
<path d="M1864 1368 c-5 -7 -3 -8 6 -3 10 6 12 4 7 -9 -4 -10 -3 -15 3 -11 13
8 13 35 1 35 -6 0 -13 -5 -17 -12z"/>
<path d="M3560 1369 c0 -5 5 -7 10 -4 6 3 10 8 10 11 0 2 -4 4 -10 4 -5 0 -10
-5 -10 -11z"/>
<path d="M1910 1359 c0 -5 5 -7 10 -4 6 3 10 8 10 11 0 2 -4 4 -10 4 -5 0 -10
-5 -10 -11z"/>
<path d="M3559 1345 c-1 -3 -2 -8 -3 -12 -1 -5 -5 -15 -10 -23 -7 -12 -6 -13
4 -3 13 12 23 43 14 43 -2 0 -5 -2 -5 -5z"/>
<path d="M1826 1328 c3 -4 9 -8 15 -8 5 0 9 4 9 8 0 5 -7 9 -15 9 -8 0 -12 -4
-9 -9z"/>
<path d="M1890 1332 c0 -4 12 -8 28 -9 23 -1 24 -1 7 7 -26 11 -35 12 -35 2z"/>
<path d="M3466 1333 c-4 -5 -12 -9 -17 -9 -5 -1 -13 -2 -19 -3 -5 0 -10 -6
-10 -13 0 -9 3 -9 11 -1 9 9 18 8 38 -4 22 -13 23 -13 8 0 -19 16 -7 34 15 21
7 -4 8 -3 4 4 -8 14 -19 15 -30 5z"/>
<path d="M3507 1317 c-3 -8 1 -14 8 -14 7 0 11 6 8 14 -3 7 -6 13 -8 13 -2 0
-5 -6 -8 -13z"/>
<path d="M1870 1310 c0 -5 5 -10 11 -10 5 0 7 5 4 10 -3 6 -8 10 -11 10 -2 0
-4 -4 -4 -10z"/>
<path d="M1950 1311 c0 -6 4 -13 10 -16 6 -3 7 1 4 9 -7 18 -14 21 -14 7z"/>
<path d="M1830 1289 c0 -5 5 -7 10 -4 6 3 10 8 10 11 0 2 -4 4 -10 4 -5 0 -10
-5 -10 -11z"/>
<path d="M1917 1282 c-15 -16 -15 -18 2 -18 12 0 17 5 13 15 -4 10 -1 12 8 6
9 -5 11 -4 6 3 -9 15 -10 15 -29 -6z"/>
<path d="M3434 1289 c-3 -6 -3 -13 0 -16 3 -4 6 -1 6 5 0 6 7 9 15 6 8 -4 15
-4 15 -1 0 11 -30 16 -36 6z"/>
<path d="M1955 1270 c-3 -5 -1 -10 4 -10 6 0 11 5 11 10 0 6 -2 10 -4 10 -3 0
-8 -4 -11 -10z"/>
<path d="M3367 1265 c-15 -11 -17 -17 -7 -32 10 -15 11 -16 6 -1 -3 10 2 21
12 27 9 5 15 12 12 14 -3 3 -13 -1 -23 -8z"/>
<path d="M3476 1271 c-3 -5 2 -15 12 -22 15 -13 16 -12 4 3 -10 13 -10 17 0
21 9 4 9 6 1 6 -6 1 -14 -3 -17 -8z"/>
<path d="M1990 1253 c0 -5 5 -15 10 -23 7 -12 9 -10 7 8 -1 19 -17 33 -17 15z"/>
<path d="M3392 1251 c-11 -6 -10 -10 4 -15 9 -3 19 -4 22 -1 3 3 0 5 -7 5 -7
0 -9 5 -6 10 7 12 4 12 -13 1z"/>
<path d="M3427 1249 c7 -7 15 -10 18 -7 3 3 -2 9 -12 12 -14 6 -15 5 -6 -5z"/>
<path d="M2130 1238 c0 -5 -4 -7 -9 -4 -5 3 -12 -1 -15 -9 -5 -13 -2 -13 24 0
34 17 37 22 15 22 -8 0 -15 -4 -15 -9z"/>
<path d="M1895 1230 c3 -5 8 -10 11 -10 2 0 4 5 4 10 0 6 -5 10 -11 10 -5 0
-7 -4 -4 -10z"/>
<path d="M1975 1221 c-3 -5 -2 -12 3 -15 5 -3 9 1 9 9 0 17 -3 19 -12 6z"/>
<path d="M2040 1219 c0 -5 -4 -8 -8 -5 -4 2 -8 -4 -8 -15 0 -19 1 -19 13 -3
13 18 17 34 8 34 -3 0 -5 -5 -5 -11z"/>
<path d="M2067 1209 c7 -7 15 -10 18 -7 3 3 -2 9 -12 12 -14 6 -15 5 -6 -5z"/>
<path d="M3395 1210 c-3 -5 -1 -10 4 -10 6 0 11 5 11 10 0 6 -2 10 -4 10 -3 0
-8 -4 -11 -10z"/>
<path d="M2120 1199 c0 -5 -4 -8 -9 -4 -6 3 -15 -5 -21 -17 -10 -21 -10 -22 4
-5 8 10 18 18 22 17 5 -1 10 3 12 9 2 6 1 11 -2 11 -3 0 -6 -5 -6 -11z"/>
<path d="M3320 1201 c0 -6 4 -13 10 -16 6 -3 7 1 4 9 -7 18 -14 21 -14 7z"/>
<path d="M1930 1189 c0 -5 5 -7 10 -4 6 3 10 8 10 11 0 2 -4 4 -10 4 -5 0 -10
-5 -10 -11z"/>
<path d="M3240 1185 c-9 -10 -9 -18 0 -32 11 -17 11 -17 6 0 -3 11 -3 24 1 30
4 7 10 2 14 -13 6 -23 7 -23 8 -3 1 28 -13 37 -29 18z"/>
<path d="M3295 1189 c-4 -6 -5 -12 -2 -15 2 -3 7 2 10 11 7 17 1 20 -8 4z"/>
<path d="M3430 1189 c0 -5 5 -7 10 -4 6 3 10 8 10 11 0 2 -4 4 -10 4 -5 0 -10
-5 -10 -11z"/>
<path d="M1866 1172 c-3 -5 1 -9 9 -9 8 0 12 4 9 9 -3 4 -7 8 -9 8 -2 0 -6 -4
-9 -8z"/>
<path d="M2046 1172 c-3 -5 1 -9 9 -9 8 0 12 4 9 9 -3 4 -7 8 -9 8 -2 0 -6 -4
-9 -8z"/>
<path d="M2227 1166 c-15 -12 -16 -15 -2 -26 11 -9 13 -15 5 -20 -8 -5 -7 -9
3 -13 10 -4 14 0 12 11 -1 9 3 21 9 25 7 6 4 7 -7 3 -12 -4 -17 -2 -14 6 2 7
10 12 16 11 6 -2 11 2 11 7 0 13 -11 12 -33 -4z"/>
<path d="M1975 1161 c-3 -5 -2 -12 3 -15 5 -3 9 1 9 9 0 17 -3 19 -12 6z"/>
<path d="M2156 1155 c-3 -9 -2 -14 3 -11 5 3 14 -1 21 -9 14 -17 30 -20 30 -4
0 5 -4 8 -9 4 -5 -3 -16 4 -24 15 -13 18 -15 19 -21 5z"/>
<path d="M2117 1143 c6 -15 4 -16 -8 -6 -13 10 -16 10 -16 -2 0 -8 3 -13 5
-10 3 3 10 1 16 -5 8 -6 12 -3 13 10 1 11 -2 22 -8 25 -5 4 -6 -2 -2 -12z"/>
<path d="M3195 1149 c-4 -6 -4 -13 -1 -16 3 -4 6 -1 6 5 0 7 5 12 11 12 5 0 7
-5 3 -12 -4 -7 -3 -8 5 -4 12 8 6 26 -9 26 -5 0 -12 -5 -15 -11z"/>
<path d="M3153 1135 c0 -8 4 -15 9 -15 4 0 8 7 8 15 0 8 -4 15 -8 15 -5 0 -9
-7 -9 -15z"/>
<path d="M2148 1119 c-4 -11 1 -15 17 -15 13 0 21 4 19 8 -3 5 -9 6 -14 3 -4
-3 -10 0 -12 7 -3 8 -6 7 -10 -3z"/>
<path d="M3075 1104 c-9 -15 -12 -23 -6 -20 11 7 35 46 28 46 -3 0 -12 -12
-22 -26z"/>
<path d="M3235 1110 c6 -30 16 -40 12 -12 -2 12 -6 24 -10 28 -3 4 -4 -4 -2
-16z"/>
<path d="M2050 1109 c0 -5 5 -7 10 -4 6 3 10 8 10 11 0 2 -4 4 -10 4 -5 0 -10
-5 -10 -11z"/>
<path d="M2999 1118 c-3 -6 -8 -60 -6 -57 2 2 9 13 17 23 10 13 10 17 3 12 -7
-4 -13 -3 -13 3 0 5 6 12 13 14 10 4 10 6 0 6 -7 1 -14 0 -14 -1z"/>
<path d="M3114 1113 c3 -3 -2 -13 -12 -21 -9 -8 -4 -6 12 3 28 17 29 17 23 -4
-3 -12 -1 -19 4 -15 16 9 6 37 -14 40 -11 1 -16 0 -13 -3z"/>
<path d="M3335 1110 c3 -5 8 -10 11 -10 2 0 4 5 4 10 0 6 -5 10 -11 10 -5 0
-7 -4 -4 -10z"/>
<path d="M2205 1090 c-3 -6 1 -7 9 -4 18 7 21 14 7 14 -6 0 -13 -4 -16 -10z"/>
<path d="M2240 1082 c-18 -14 -19 -19 -7 -19 9 0 13 5 10 10 -4 6 0 8 9 5 9
-4 15 0 15 8 0 18 0 18 -27 -4z"/>
<path d="M2965 1090 c-3 -5 -1 -10 4 -10 6 0 11 5 11 10 0 6 -2 10 -4 10 -3 0
-8 -4 -11 -10z"/>
<path d="M2100 1070 c8 -5 20 -10 25 -10 6 0 3 5 -5 10 -8 5 -19 10 -25 10 -5
0 -3 -5 5 -10z"/>
<path d="M2279 1070 c-1 -5 -2 -16 -3 -22 -1 -7 -8 -12 -15 -10 -7 1 -9 -2 -6
-9 5 -8 10 -8 18 0 11 11 21 51 12 51 -3 0 -6 -4 -6 -10z"/>
<path d="M2455 1070 c-8 -13 5 -13 25 0 13 8 13 10 -2 10 -9 0 -20 -4 -23 -10z"/>
<path d="M2577 1066 c-4 -11 -1 -13 10 -9 9 4 14 2 10 -3 -3 -6 4 -11 15 -11
11 -1 19 -1 17 0 -2 1 -14 10 -25 20 -19 15 -22 16 -27 3z"/>
<path d="M3016 1072 c-2 -4 -1 -14 3 -21 6 -9 11 -10 15 -2 4 6 2 11 -4 11 -6
0 -8 5 -5 10 3 6 4 10 1 10 -3 0 -7 -4 -10 -8z"/>
<path d="M2321 1054 c0 -11 3 -14 6 -6 3 7 2 16 -1 19 -3 4 -6 -2 -5 -13z"/>
<path d="M2350 1066 c0 -2 7 -9 15 -16 9 -7 15 -8 15 -2 0 5 -7 12 -15 16 -8
3 -15 4 -15 2z"/>
<path d="M2774 1058 c3 -17 28 -17 34 0 2 6 -1 12 -8 12 -6 0 -8 -4 -5 -10 3
-5 2 -10 -4 -10 -5 0 -12 5 -14 10 -3 6 -4 5 -3 -2z"/>
<path d="M2948 1047 c-3 -14 0 -24 7 -24 7 0 10 10 7 24 -2 13 -6 23 -7 23 -1
0 -5 -10 -7 -23z"/>
<path d="M2430 1050 c8 -5 20 -10 25 -10 6 0 3 5 -5 10 -8 5 -19 10 -25 10 -5
0 -3 -5 5 -10z"/>
<path d="M2690 1050 c0 -5 5 -10 10 -10 6 0 10 5 10 10 0 6 -4 10 -10 10 -5 0
-10 -4 -10 -10z"/>
<path d="M2826 1047 c3 -10 9 -15 12 -12 3 3 0 11 -7 18 -10 9 -11 8 -5 -6z"/>
<path d="M3073 1045 c0 -8 4 -12 9 -9 4 3 8 9 8 15 0 5 -4 9 -8 9 -5 0 -9 -7
-9 -15z"/>
<path d="M3125 1050 c-5 -8 42 -7 49 1 3 3 -6 5 -20 5 -14 0 -27 -3 -29 -6z"/>
<path d="M3200 1050 c-9 -6 -10 -10 -3 -10 6 0 15 5 18 10 8 12 4 12 -15 0z"/>
<path d="M2386 1033 c-6 -14 -5 -15 5 -6 7 7 10 15 7 18 -3 3 -9 -2 -12 -12z"/>
<path d="M2550 1042 c0 -6 9 -12 20 -15 11 -3 20 -3 20 -1 0 2 -9 8 -20 14
-11 6 -20 7 -20 2z"/>
<path d="M2635 1029 c-4 -6 -4 -13 -1 -16 3 -4 6 -1 6 5 0 7 5 12 11 12 5 0 7
-5 3 -12 -4 -7 -3 -8 5 -4 12 8 6 26 -9 26 -5 0 -12 -5 -15 -11z"/>
<path d="M2759 1030 c-3 -20 -4 -25 -12 -37 -5 -9 -3 -11 6 -7 8 3 15 16 15
30 0 23 -7 34 -9 14z"/>
<path d="M2853 1033 c4 -6 2 -13 -4 -15 -7 -2 -6 -8 3 -16 12 -9 14 -8 13 8
-1 11 -5 23 -10 27 -4 5 -5 3 -2 -4z"/>
<path d="M2899 1038 c0 -2 -2 -13 -3 -25 -2 -16 1 -20 9 -13 7 5 14 8 17 5 2
-3 5 1 5 9 0 8 -6 12 -15 8 -10 -3 -13 -1 -8 6 4 7 5 12 2 12 -3 0 -6 -1 -7
-2z"/>
<path d="M3035 1030 c-3 -6 1 -7 9 -4 18 7 21 14 7 14 -6 0 -13 -4 -16 -10z"/>
<path d="M2679 1023 c0 -5 -2 -16 -4 -25 -2 -10 0 -18 5 -18 4 0 8 11 8 25 0
22 -7 36 -9 18z"/>
<path d="M2398 1008 c-9 -5 -6 -7 9 -5 12 2 25 6 28 8 8 9 -23 6 -37 -3z"/>
<path d="M2496 1004 c-5 -14 -4 -15 9 -4 17 14 19 20 6 20 -5 0 -12 -7 -15
-16z"/>
<path d="M2784 999 c0 -9 5 -15 11 -12 7 2 12 10 12 17 0 7 -5 13 -12 13 -6 0
-11 -8 -11 -18z"/>
<path d="M2990 1016 c0 -2 7 -7 16 -10 8 -3 12 -2 9 4 -6 10 -25 14 -25 6z"/>
<path d="M3075 1009 c-3 -4 2 -6 10 -5 21 3 28 13 10 13 -9 0 -18 -4 -20 -8z"/>
<path d="M2290 989 c0 -5 5 -7 10 -4 6 3 10 8 10 11 0 2 -4 4 -10 4 -5 0 -10
-5 -10 -11z"/>
<path d="M2519 983 c-13 -16 -12 -17 4 -4 16 13 21 21 13 21 -2 0 -10 -8 -17
-17z"/>
<path d="M2556 988 c3 -5 10 -6 15 -3 13 9 11 12 -6 12 -8 0 -12 -4 -9 -9z"/>
<path d="M2590 990 c0 -5 5 -10 10 -10 6 0 10 5 10 10 0 6 -4 10 -10 10 -5 0
-10 -4 -10 -10z"/>
<path d="M2370 969 c0 -5 5 -7 10 -4 6 3 10 8 10 11 0 2 -4 4 -10 4 -5 0 -10
-5 -10 -11z"/>
<path d="M2860 976 c0 -2 8 -10 18 -17 15 -13 16 -12 3 4 -13 16 -21 21 -21
13z"/>
<path d="M2454 952 c4 -3 14 -7 22 -8 9 -1 13 0 10 4 -4 3 -14 7 -22 8 -9 1
-13 0 -10 -4z"/>
<path d="M2575 950 c3 -5 8 -10 11 -10 2 0 4 5 4 10 0 6 -5 10 -11 10 -5 0 -7
-4 -4 -10z"/>
<path d="M2795 930 c3 -5 8 -10 11 -10 2 0 4 5 4 10 0 6 -5 10 -11 10 -5 0 -7
-4 -4 -10z"/>
<path d="M2755 850 c-3 -5 -1 -10 4 -10 6 0 11 5 11 10 0 6 -2 10 -4 10 -3 0
-8 -4 -11 -10z"/>
</g>
</svg>
